# Blender v2.81 (sub 16) OBJ File: 'RockPack2019.blend'
# www.blender.org
mtllib PISO ENTERO PARTIDO EN 2.mtl
o Cube.002_Cube.006
v -0.083543 -0.250000 3.957048
v -0.083543 0.250000 3.957048
v -0.083543 -0.250000 -6.042952
v -0.083543 0.250000 -6.042952
v 9.916456 -0.250000 3.957048
v 9.916456 0.250000 3.957048
v 9.916456 -0.250000 -6.042952
v 9.916456 0.250000 -6.042952
v 9.991440 -0.250000 3.957048
v 9.991440 0.250000 3.957048
v 9.991440 -0.250000 -6.042952
v 9.991440 0.250000 -6.042952
vt 0.375000 0.000000
vt 0.625000 0.000000
vt 0.625000 0.250000
vt 0.375000 0.250000
vt 0.625000 0.500000
vt 0.375000 0.500000
vt 0.625000 0.750000
vt 0.625000 0.750000
vt 0.625000 0.500000
vt 0.375000 0.750000
vt 0.625000 1.000000
vt 0.375000 1.000000
vt 0.125000 0.500000
vt 0.125000 0.750000
vt 0.875000 0.500000
vt 0.875000 0.750000
vt 0.375000 0.500000
vt 0.375000 0.750000
vn -1.0000 0.0000 0.0000
vn 0.0000 0.0000 -1.0000
vn 0.0000 1.0000 0.0000
vn 0.0000 0.0000 1.0000
vn 0.0000 -1.0000 0.0000
vn 1.0000 0.0000 0.0000
usemtl None
s off
f 1/1/1 2/2/1 4/3/1 3/4/1
f 3/4/2 4/3/2 8/5/2 7/6/2
f 8/5/3 6/7/3 10/8/3 12/9/3
f 5/10/4 6/7/4 2/11/4 1/12/4
f 3/13/5 7/6/5 5/10/5 1/14/5
f 8/5/3 4/15/3 2/16/3 6/7/3
f 11/17/6 12/9/6 10/8/6 9/18/6
f 7/6/2 8/5/2 12/9/2 11/17/2
f 6/7/4 5/10/4 9/18/4 10/8/4
f 5/10/5 7/6/5 11/17/5 9/18/5
o Cube.003_Cube.007
v -4.705557 -0.250000 3.951894
v -4.705557 0.250000 3.951894
v -8.516621 -0.250000 -6.016230
v -8.516621 0.250000 -6.016230
v -0.082901 -0.250000 3.953930
v -0.082901 0.250000 3.953930
v -3.893964 -0.250000 -5.996197
v -3.893964 0.250000 -5.996197
vt 0.375000 0.000000
vt 0.625000 0.000000
vt 0.625000 0.250000
vt 0.375000 0.250000
vt 0.625000 0.500000
vt 0.375000 0.500000
vt 0.625000 0.750000
vt 0.375000 0.750000
vt 0.625000 1.000000
vt 0.375000 1.000000
vt 0.125000 0.500000
vt 0.125000 0.750000
vt 0.875000 0.500000
vt 0.875000 0.750000
vn -0.9341 0.0000 0.3571
vn 0.0043 0.0000 -1.0000
vn 0.9338 0.0000 -0.3577
vn -0.0004 0.0000 1.0000
vn 0.0000 -1.0000 0.0000
vn 0.0000 1.0000 0.0000
usemtl None
s off
f 13/19/7 14/20/7 16/21/7 15/22/7
f 15/22/8 16/21/8 20/23/8 19/24/8
f 19/24/9 20/23/9 18/25/9 17/26/9
f 17/26/10 18/25/10 14/27/10 13/28/10
f 15/29/11 19/24/11 17/26/11 13/30/11
f 20/23/12 16/31/12 14/32/12 18/25/12
o Cube.004_Cube.008
v -10.025806 -0.250000 3.911062
v -10.025806 0.250000 3.911062
v -10.170174 -0.250000 -6.035501
v -10.170174 0.250000 -6.035501
v -8.790437 -0.250000 3.934659
v -8.790437 0.250000 3.934659
v -8.514238 -0.250000 -6.015469
v -8.514238 0.250000 -6.015469
vt 0.375000 0.000000
vt 0.625000 0.000000
vt 0.625000 0.250000
vt 0.375000 0.250000
vt 0.625000 0.500000
vt 0.375000 0.500000
vt 0.625000 0.750000
vt 0.375000 0.750000
vt 0.625000 1.000000
vt 0.375000 1.000000
vt 0.125000 0.500000
vt 0.125000 0.750000
vt 0.875000 0.500000
vt 0.875000 0.750000
vn -0.9999 0.0000 0.0145
vn 0.0121 0.0000 -0.9999
vn 0.9996 0.0000 0.0277
vn -0.0191 0.0000 0.9998
vn 0.0000 -1.0000 0.0000
vn 0.0000 1.0000 0.0000
usemtl None
s off
f 21/33/13 22/34/13 24/35/13 23/36/13
f 23/36/14 24/35/14 28/37/14 27/38/14
f 27/38/15 28/37/15 26/39/15 25/40/15
f 25/40/16 26/39/16 22/41/16 21/42/16
f 23/43/17 27/38/17 25/40/17 21/44/17
f 28/37/18 24/45/18 22/46/18 26/39/18
