# Blender v2.81 (sub 16) OBJ File: 'RockPack2019.blend'
# www.blender.org
mtllib PISO ENTERO CON LA PUNTA QUEBRADA.mtl
o Cube.033_Cube.035
v -7.029199 0.031472 4.629442
v -7.029199 0.531472 4.629442
v -9.989231 0.031472 -5.370558
v -9.989231 0.531472 -5.370558
v 10.010769 0.031472 4.629442
v 10.010769 0.531472 4.629442
v 10.010769 0.031472 -5.370558
v 10.010769 0.531472 -5.370558
vt 0.375000 0.000000
vt 0.625000 0.000000
vt 0.625000 0.250000
vt 0.375000 0.250000
vt 0.625000 0.500000
vt 0.375000 0.500000
vt 0.625000 0.750000
vt 0.375000 0.750000
vt 0.625000 1.000000
vt 0.375000 1.000000
vt 0.125000 0.500000
vt 0.125000 0.750000
vt 0.875000 0.500000
vt 0.875000 0.750000
vn -0.9589 0.0000 0.2838
vn 0.0000 0.0000 -1.0000
vn 1.0000 0.0000 0.0000
vn 0.0000 0.0000 1.0000
vn 0.0000 -1.0000 0.0000
vn 0.0000 1.0000 0.0000
usemtl None
s off
f 1/1/1 2/2/1 4/3/1 3/4/1
f 3/4/2 4/3/2 8/5/2 7/6/2
f 7/6/3 8/5/3 6/7/3 5/8/3
f 5/8/4 6/7/4 2/9/4 1/10/4
f 3/11/5 7/6/5 5/8/5 1/12/5
f 8/5/6 4/13/6 2/14/6 6/7/6
