# Blender v2.81 (sub 16) OBJ File: ''
# www.blender.org
mtllib arbol 1.mtl
o SapinHiver_Cylinder.008
v 0.026310 1.236632 -1.047669
v -0.635710 1.326978 -0.699200
v -0.984179 1.236632 -0.037180
v -0.635710 1.326978 0.624840
v 0.026310 1.236632 0.973309
v 0.688330 1.326978 0.624840
v 1.036799 1.236632 -0.037180
v 0.688330 1.326978 -0.699200
v -0.542228 1.943851 -0.605718
v -0.841490 1.853504 -0.037180
v -0.542228 1.943851 0.531358
v 0.026310 1.853504 0.830621
v 0.594848 1.943851 0.531358
v 0.894110 1.853504 -0.037180
v 0.594848 1.943851 -0.605718
v 0.026310 1.853504 -0.904980
v -0.439554 2.560723 -0.503044
v -0.684773 2.470377 -0.037180
v -0.439554 2.560723 0.428684
v 0.026310 2.470377 0.673903
v 0.492174 2.560723 0.428684
v 0.737393 2.470377 -0.037180
v 0.492174 2.560723 -0.503044
v 0.026310 2.470377 -0.748263
v -0.337951 3.177596 -0.401440
v -0.529687 3.087249 -0.037180
v -0.337951 3.177596 0.327080
v 0.026310 3.087249 0.518817
v 0.390570 3.177596 0.327081
v 0.582307 3.087249 -0.037180
v 0.390570 3.177596 -0.401440
v 0.026310 3.087249 -0.593177
v -0.241277 3.794468 -0.304767
v -0.382128 3.704122 -0.037180
v -0.241277 3.794468 0.230407
v 0.026310 3.704122 0.371258
v 0.293897 3.794468 0.230407
v 0.434748 3.704122 -0.037180
v 0.293897 3.794468 -0.304767
v 0.026310 3.704122 -0.445618
v -0.137291 4.411341 -0.200781
v -0.223407 4.320995 -0.037180
v -0.137291 4.411341 0.126421
v 0.026310 4.320995 0.212537
v 0.189911 4.411341 0.126421
v 0.276026 4.320995 -0.037180
v 0.189911 4.411341 -0.200781
v 0.026310 4.320995 -0.286896
v -0.375427 1.973018 -0.438917
v -0.303914 2.589890 -0.367404
v -0.232402 3.206763 -0.295892
v -0.160890 3.823636 -0.224380
v -0.089377 4.440508 -0.152867
v -0.586890 1.882671 -0.037180
v -0.477736 2.499544 -0.037180
v -0.368581 3.116416 -0.037180
v -0.259426 3.733289 -0.037180
v -0.150272 4.350162 -0.037180
v -0.375427 1.973018 0.364557
v -0.303914 2.589890 0.293044
v -0.232402 3.206763 0.221532
v -0.160890 3.823636 0.150020
v -0.089377 4.440508 0.078507
v 0.026310 1.882671 0.576020
v 0.026310 2.499544 0.466865
v 0.026310 3.116416 0.357711
v 0.026310 3.733289 0.248556
v 0.026310 4.350162 0.139402
v 0.428047 1.973018 0.364557
v 0.356534 2.589890 0.293044
v 0.285022 3.206763 0.221532
v 0.213510 3.823636 0.150020
v 0.141997 4.440508 0.078507
v 0.639510 1.882671 -0.037180
v 0.530355 2.499544 -0.037180
v 0.421201 3.116416 -0.037180
v 0.312046 3.733289 -0.037180
v 0.202892 4.350162 -0.037180
v 0.428047 1.973018 -0.438917
v 0.356534 2.589890 -0.367404
v 0.285022 3.206763 -0.295892
v 0.213510 3.823636 -0.224380
v 0.141997 4.440508 -0.152867
v 0.026310 4.350162 -0.213762
v 0.026310 3.733289 -0.322916
v 0.026310 3.116416 -0.432071
v 0.026310 2.499544 -0.541225
v 0.026310 1.882671 -0.650380
v 0.019273 5.057381 -0.044216
v -0.446939 1.356145 -0.510429
v 0.016359 5.057381 -0.037180
v -0.696045 1.265799 -0.037180
v 0.019273 5.057381 -0.030143
v -0.446939 1.356145 0.436069
v 0.026310 5.057381 -0.027229
v 0.026310 1.265799 0.685175
v 0.033346 5.057381 -0.030143
v 0.499559 1.356145 0.436069
v 0.036261 5.057381 -0.037180
v 0.748664 1.265799 -0.037180
v 0.033346 5.057381 -0.044216
v 0.499559 1.356145 -0.510429
v 0.026310 5.057381 -0.047131
v 0.026310 1.265799 -0.759534
v 0.026310 0.037406 -0.260276
v 0.026310 1.300285 -0.260276
v 0.184063 0.037406 -0.194933
v 0.184063 1.300285 -0.194933
v 0.249406 0.037406 -0.037180
v 0.249406 1.300285 -0.037180
v 0.184063 0.037406 0.120573
v 0.184063 1.300285 0.120573
v 0.026310 0.037406 0.185916
v 0.026310 1.300285 0.185916
v -0.131443 0.037406 0.120573
v -0.131443 1.300285 0.120573
v -0.196786 0.037406 -0.037180
v -0.196786 1.300285 -0.037180
v -0.131443 0.037406 -0.194933
v -0.131443 1.300285 -0.194933
v 0.026310 1.229260 -0.759534
v 0.026310 5.020843 -0.047131
v 0.499559 1.319607 -0.510429
v 0.033346 5.020843 -0.044216
v 0.748664 1.229260 -0.037180
v 0.036261 5.020843 -0.037180
v 0.499559 1.319607 0.436069
v 0.033346 5.020843 -0.030143
v 0.026310 1.229260 0.685175
v 0.026310 5.020843 -0.027229
v -0.446939 1.319607 0.436069
v 0.019273 5.020843 -0.030143
v -0.696045 1.229260 -0.037180
v 0.016359 5.020843 -0.037180
v -0.446939 1.319607 -0.510429
v 0.019273 5.020843 -0.044216
v 0.026310 1.846133 -0.650380
v 0.026310 2.463005 -0.541225
v 0.026310 3.079878 -0.432071
v 0.026310 3.696751 -0.322916
v 0.026310 4.313623 -0.213762
v 0.141997 4.403970 -0.152867
v 0.213510 3.787097 -0.224380
v 0.285022 3.170224 -0.295892
v 0.356534 2.553352 -0.367404
v 0.428047 1.936479 -0.438917
v 0.202892 4.313623 -0.037180
v 0.312046 3.696751 -0.037180
v 0.421201 3.079878 -0.037180
v 0.530355 2.463005 -0.037180
v 0.639510 1.846133 -0.037180
v 0.141997 4.403970 0.078507
v 0.213510 3.787097 0.150020
v 0.285022 3.170224 0.221532
v 0.356534 2.553352 0.293044
v 0.428047 1.936479 0.364557
v 0.026310 4.313623 0.139402
v 0.026310 3.696751 0.248556
v 0.026310 3.079878 0.357711
v 0.026310 2.463005 0.466865
v 0.026310 1.846133 0.576020
v -0.089377 4.403970 0.078507
v -0.160890 3.787097 0.150020
v -0.232402 3.170224 0.221532
v -0.303914 2.553352 0.293044
v -0.375427 1.936479 0.364557
v -0.150272 4.313623 -0.037180
v -0.259426 3.696751 -0.037180
v -0.368581 3.079878 -0.037180
v -0.477736 2.463005 -0.037180
v -0.586890 1.846133 -0.037180
v -0.089377 4.403970 -0.152867
v -0.160890 3.787097 -0.224380
v -0.232402 3.170224 -0.295892
v -0.303914 2.553352 -0.367404
v -0.375427 1.936479 -0.438917
v 0.026310 4.284456 -0.286896
v 0.189911 4.374803 -0.200781
v 0.276026 4.284456 -0.037180
v 0.189911 4.374803 0.126421
v 0.026310 4.284456 0.212537
v -0.137291 4.374803 0.126421
v -0.223407 4.284456 -0.037180
v -0.137291 4.374803 -0.200781
v 0.026310 3.667583 -0.445618
v 0.293897 3.757930 -0.304767
v 0.434748 3.667583 -0.037180
v 0.293897 3.757930 0.230407
v 0.026310 3.667583 0.371258
v -0.241277 3.757930 0.230407
v -0.382128 3.667583 -0.037180
v -0.241277 3.757930 -0.304767
v 0.026310 3.050711 -0.593177
v 0.390570 3.141057 -0.401440
v 0.582307 3.050711 -0.037180
v 0.390570 3.141057 0.327081
v 0.026310 3.050711 0.518817
v -0.337951 3.141057 0.327080
v -0.529687 3.050711 -0.037180
v -0.337951 3.141057 -0.401440
v 0.026310 2.433838 -0.748263
v 0.492174 2.524184 -0.503044
v 0.737393 2.433838 -0.037180
v 0.492174 2.524184 0.428684
v 0.026310 2.433838 0.673903
v -0.439554 2.524184 0.428684
v -0.684773 2.433838 -0.037180
v -0.439554 2.524184 -0.503044
v 0.026310 1.816965 -0.904980
v 0.594848 1.907312 -0.605718
v 0.894110 1.816965 -0.037180
v 0.594848 1.907312 0.531358
v 0.026310 1.816965 0.830621
v -0.542228 1.907312 0.531358
v -0.841490 1.816965 -0.037180
v -0.542228 1.907312 -0.605718
v 0.688330 1.290439 -0.699200
v 1.036799 1.200093 -0.037180
v 0.688330 1.290439 0.624840
v 0.026310 1.200093 0.973309
v -0.635710 1.290439 0.624840
v -0.984179 1.200093 -0.037180
v -0.635710 1.290439 -0.699200
v 0.026310 1.200093 -1.047669
vn 0.3827 0.0000 -0.9239
vn 0.9239 0.0000 -0.3827
vn 0.9239 0.0000 0.3827
vn 0.3827 0.0000 0.9239
vn -0.3827 0.0000 0.9239
vn -0.9239 0.0000 0.3827
vn 0.0000 1.0000 0.0000
vn -0.3827 0.0000 -0.9239
vn -0.9239 0.0000 -0.3827
vn 0.0000 -1.0000 0.0000
vn 0.3149 0.2944 -0.9023
vn 0.9023 0.2944 -0.3149
vn 0.9023 0.2944 0.3149
vn 0.3149 0.2944 0.9023
vn -0.3149 0.2944 0.9023
vn -0.9023 0.2944 0.3149
vn -0.3149 0.2944 -0.9023
vn -0.9023 0.2944 -0.3149
vn 0.3434 0.4800 -0.8073
vn 0.3443 0.4480 -0.8251
vn 0.3471 0.3993 -0.8486
vn 0.3444 0.3489 -0.8716
vn 0.3275 0.3042 -0.8946
vn 0.8073 0.4800 -0.3434
vn 0.8251 0.4480 -0.3443
vn 0.8486 0.3993 -0.3471
vn 0.8716 0.3489 -0.3444
vn 0.8946 0.3042 -0.3275
vn 0.8073 0.4800 0.3434
vn 0.8251 0.4480 0.3443
vn 0.8486 0.3993 0.3471
vn 0.8716 0.3489 0.3444
vn 0.8946 0.3042 0.3275
vn 0.3434 0.4800 0.8073
vn 0.3443 0.4480 0.8251
vn 0.3471 0.3993 0.8486
vn 0.3444 0.3489 0.8716
vn 0.3275 0.3042 0.8946
vn -0.3434 0.4800 0.8073
vn -0.3443 0.4480 0.8251
vn -0.3471 0.3993 0.8486
vn -0.3444 0.3489 0.8716
vn -0.3275 0.3042 0.8946
vn -0.8073 0.4800 0.3434
vn -0.8251 0.4480 0.3443
vn -0.8486 0.3993 0.3471
vn -0.8716 0.3489 0.3444
vn -0.8946 0.3042 0.3275
vn -0.3434 0.4800 -0.8073
vn -0.3443 0.4480 -0.8251
vn -0.3471 0.3993 -0.8486
vn -0.3444 0.3489 -0.8716
vn -0.3275 0.3042 -0.8946
vn -0.8073 0.4800 -0.3434
vn -0.8251 0.4480 -0.3443
vn -0.8486 0.3993 -0.3471
vn -0.8716 0.3489 -0.3444
vn -0.8946 0.3042 -0.3275
vn 0.2676 -0.8223 0.5022
vn -0.5022 -0.8223 -0.2676
vn -0.5022 -0.8223 0.2676
vn 0.2676 -0.8223 -0.5022
vn -0.2676 -0.8223 -0.5022
vn 0.5022 -0.8223 0.2676
vn -0.2676 -0.8223 0.5022
vn 0.5022 -0.8223 -0.2677
vn 0.1878 -0.9218 0.3391
vn -0.3391 -0.9218 -0.1878
vn -0.3391 -0.9218 0.1878
vn 0.1878 -0.9218 -0.3391
vn -0.1878 -0.9218 -0.3391
vn 0.3391 -0.9218 0.1878
vn -0.1878 -0.9218 0.3391
vn 0.3391 -0.9218 -0.1878
vn 0.1382 -0.9547 0.2635
vn -0.2636 -0.9547 -0.1382
vn -0.2636 -0.9547 0.1382
vn 0.1382 -0.9547 -0.2635
vn -0.1382 -0.9547 -0.2635
vn 0.2636 -0.9547 0.1382
vn -0.1382 -0.9547 0.2635
vn 0.2636 -0.9547 -0.1382
vn 0.1105 -0.9716 0.2091
vn -0.2091 -0.9716 -0.1105
vn -0.2091 -0.9716 0.1105
vn 0.1105 -0.9716 -0.2091
vn -0.1105 -0.9716 -0.2091
vn 0.2091 -0.9716 0.1105
vn -0.1105 -0.9716 0.2091
vn 0.2091 -0.9716 -0.1105
vn 0.0920 -0.9808 0.1722
vn -0.1722 -0.9808 -0.0920
vn -0.1722 -0.9808 0.0920
vn 0.0920 -0.9808 -0.1722
vn -0.0920 -0.9808 -0.1722
vn 0.1722 -0.9808 0.0920
vn -0.0920 -0.9808 0.1722
vn 0.1722 -0.9808 -0.0920
vn 0.0773 -0.9855 0.1511
vn -0.1511 -0.9855 -0.0773
vn -0.1511 -0.9855 0.0773
vn 0.0773 -0.9855 -0.1511
vn -0.0773 -0.9855 -0.1511
vn 0.1511 -0.9855 0.0773
vn -0.0773 -0.9855 0.1511
vn 0.1511 -0.9855 -0.0773
vn -0.5022 -0.8223 0.2677
vn 0.2635 -0.9547 0.1382
vn -0.2635 -0.9547 -0.1382
vn 0.1382 -0.9547 -0.2636
vn -0.2635 -0.9547 0.1382
vn 0.2635 -0.9547 -0.1382
vn -0.1382 -0.9547 0.2636
vn -0.5022 -0.8223 -0.2677
usemtl Material.008
s off
f 105//1 106//1 108//1 107//1
f 107//2 108//2 110//2 109//2
f 109//3 110//3 112//3 111//3
f 111//4 112//4 114//4 113//4
f 113//5 114//5 116//5 115//5
f 115//6 116//6 118//6 117//6
f 108//7 106//7 120//7 118//7 116//7 114//7 112//7 110//7
f 119//8 120//8 106//8 105//8
f 117//9 118//9 120//9 119//9
f 105//10 107//10 109//10 111//10 113//10 115//10 117//10 119//10
usemtl Material.009
f 177//11 122//11 124//11 178//11
f 178//12 124//12 126//12 179//12
f 179//13 126//13 128//13 180//13
f 180//14 128//14 130//14 181//14
f 181//15 130//15 132//15 182//15
f 182//16 132//16 134//16 183//16
f 184//17 136//17 122//17 177//17
f 183//18 134//18 136//18 184//18
f 121//10 123//10 125//10 127//10 129//10 131//10 133//10 135//10
f 124//7 122//7 136//7 134//7 132//7 130//7 128//7 126//7
f 224//19 137//19 146//19 217//19
f 209//20 138//20 145//20 210//20
f 201//21 139//21 144//21 202//21
f 193//22 140//22 143//22 194//22
f 185//23 141//23 142//23 186//23
f 217//24 146//24 151//24 218//24
f 210//25 145//25 150//25 211//25
f 202//26 144//26 149//26 203//26
f 194//27 143//27 148//27 195//27
f 186//28 142//28 147//28 187//28
f 218//29 151//29 156//29 219//29
f 211//30 150//30 155//30 212//30
f 203//31 149//31 154//31 204//31
f 195//32 148//32 153//32 196//32
f 187//33 147//33 152//33 188//33
f 219//34 156//34 161//34 220//34
f 212//35 155//35 160//35 213//35
f 204//36 154//36 159//36 205//36
f 196//37 153//37 158//37 197//37
f 188//38 152//38 157//38 189//38
f 220//39 161//39 166//39 221//39
f 213//40 160//40 165//40 214//40
f 205//41 159//41 164//41 206//41
f 197//42 158//42 163//42 198//42
f 189//43 157//43 162//43 190//43
f 221//44 166//44 171//44 222//44
f 214//45 165//45 170//45 215//45
f 206//46 164//46 169//46 207//46
f 198//47 163//47 168//47 199//47
f 190//48 162//48 167//48 191//48
f 223//49 176//49 137//49 224//49
f 216//50 175//50 138//50 209//50
f 208//51 174//51 139//51 201//51
f 200//52 173//52 140//52 193//52
f 192//53 172//53 141//53 185//53
f 222//54 171//54 176//54 223//54
f 215//55 170//55 175//55 216//55
f 207//56 169//56 174//56 208//56
f 199//57 168//57 173//57 200//57
f 191//58 167//58 172//58 192//58
f 141//59 177//59 178//59 142//59
f 142//60 178//60 179//60 147//60
f 147//61 179//61 180//61 152//61
f 152//62 180//62 181//62 157//62
f 157//63 181//63 182//63 162//63
f 162//64 182//64 183//64 167//64
f 172//65 184//65 177//65 141//65
f 167//66 183//66 184//66 172//66
f 140//67 185//67 186//67 143//67
f 143//68 186//68 187//68 148//68
f 148//69 187//69 188//69 153//69
f 153//70 188//70 189//70 158//70
f 158//71 189//71 190//71 163//71
f 163//72 190//72 191//72 168//72
f 173//73 192//73 185//73 140//73
f 168//74 191//74 192//74 173//74
f 139//75 193//75 194//75 144//75
f 144//76 194//76 195//76 149//76
f 149//77 195//77 196//77 154//77
f 154//78 196//78 197//78 159//78
f 159//79 197//79 198//79 164//79
f 164//80 198//80 199//80 169//80
f 174//81 200//81 193//81 139//81
f 169//82 199//82 200//82 174//82
f 138//83 201//83 202//83 145//83
f 145//84 202//84 203//84 150//84
f 150//85 203//85 204//85 155//85
f 155//86 204//86 205//86 160//86
f 160//87 205//87 206//87 165//87
f 165//88 206//88 207//88 170//88
f 175//89 208//89 201//89 138//89
f 170//90 207//90 208//90 175//90
f 137//91 209//91 210//91 146//91
f 146//92 210//92 211//92 151//92
f 151//93 211//93 212//93 156//93
f 156//94 212//94 213//94 161//94
f 161//95 213//95 214//95 166//95
f 166//96 214//96 215//96 171//96
f 176//97 216//97 209//97 137//97
f 171//98 215//98 216//98 176//98
f 121//99 224//99 217//99 123//99
f 123//100 217//100 218//100 125//100
f 125//101 218//101 219//101 127//101
f 127//102 219//102 220//102 129//102
f 129//103 220//103 221//103 131//103
f 131//104 221//104 222//104 133//104
f 135//105 223//105 224//105 121//105
f 133//106 222//106 223//106 135//106
usemtl snow
f 98//102 6//102 5//102 96//102
f 104//99 1//99 8//99 102//99
f 49//97 9//97 16//97 88//97
f 64//95 12//95 11//95 59//95
f 74//93 14//93 13//93 69//93
f 88//91 16//91 15//91 79//91
f 100//101 7//101 6//101 98//101
f 50//89 17//89 24//89 87//89
f 90//105 2//105 1//105 104//105
f 96//103 5//103 4//103 94//103
f 65//87 20//87 19//87 60//87
f 87//83 24//83 23//83 80//83
f 66//79 28//79 27//79 61//79
f 86//75 32//75 31//75 81//75
f 67//71 36//71 35//71 62//71
f 84//59 48//59 47//59 83//59
f 78//107 46//107 45//107 73//107
f 68//63 44//63 43//63 63//63
f 53//65 41//65 48//65 84//65
f 85//67 40//67 39//67 82//67
f 2//49 49//49 88//49 1//49
f 17//51 51//51 86//51 24//51
f 33//53 53//53 84//53 40//53
f 10//55 55//55 50//55 9//55
f 26//57 57//57 52//57 25//57
f 5//39 64//39 59//39 4//39
f 20//41 66//41 61//41 19//41
f 36//43 68//43 63//43 35//43
f 11//45 60//45 55//45 10//45
f 27//47 62//47 57//47 26//47
f 7//29 74//29 69//29 6//29
f 22//31 76//31 71//31 21//31
f 38//33 78//33 73//33 37//33
f 13//35 70//35 65//35 12//35
f 29//37 72//37 67//37 28//37
f 1//19 88//19 79//19 8//19
f 24//21 86//21 81//21 23//21
f 40//23 84//23 83//23 39//23
f 15//25 80//25 75//25 14//25
f 31//27 82//27 77//27 30//27
f 60//88 19//88 18//88 55//88
f 80//84 23//84 22//84 75//84
f 61//108 27//108 26//108 56//108
f 81//109 31//109 30//109 76//109
f 62//72 35//72 34//72 57//72
f 48//11 103//11 101//11 47//11
f 46//13 99//13 97//13 45//13
f 44//15 95//15 93//15 43//15
f 41//17 89//17 103//17 48//17
f 104//10 102//10 100//10 98//10 96//10 94//10 92//10 90//10
f 72//70 37//70 36//70 67//70
f 82//68 39//68 38//68 77//68
f 34//58 58//58 53//58 33//58
f 35//48 63//48 58//48 34//48
f 37//38 73//38 68//38 36//38
f 39//28 83//28 78//28 38//28
f 77//69 38//69 37//69 72//69
f 101//7 103//7 89//7 91//7 93//7 95//7 97//7 99//7
f 57//74 34//74 33//74 52//74
f 58//66 42//66 41//66 53//66
f 18//56 56//56 51//56 17//56
f 19//46 61//46 56//46 18//46
f 21//36 71//36 66//36 20//36
f 23//26 81//26 76//26 22//26
f 52//73 33//73 40//73 85//73
f 42//18 91//18 89//18 41//18
f 71//110 29//110 28//110 66//110
f 63//64 43//64 42//64 58//64
f 3//54 54//54 49//54 2//54
f 4//44 59//44 54//44 3//44
f 6//34 69//34 64//34 5//34
f 8//24 79//24 74//24 7//24
f 76//111 30//111 29//111 71//111
f 43//16 93//16 91//16 42//16
f 56//112 26//112 25//112 51//112
f 73//62 45//62 44//62 68//62
f 25//52 52//52 85//52 32//52
f 28//42 67//42 62//42 27//42
f 30//32 77//32 72//32 29//32
f 32//22 85//22 82//22 31//22
f 51//113 25//113 32//113 86//113
f 45//14 97//14 95//14 44//14
f 70//86 21//86 20//86 65//86
f 83//114 47//114 46//114 78//114
f 9//50 50//50 87//50 16//50
f 12//40 65//40 60//40 11//40
f 14//30 75//30 70//30 13//30
f 16//20 87//20 80//20 15//20
f 75//85 22//85 21//85 70//85
f 47//12 101//12 99//12 46//12
f 92//106 3//106 2//106 90//106
f 102//100 8//100 7//100 100//100
f 54//98 10//98 9//98 49//98
f 59//96 11//96 10//96 54//96
f 69//94 13//94 12//94 64//94
f 79//92 15//92 14//92 74//92
f 94//104 4//104 3//104 92//104
f 55//90 18//90 17//90 50//90
