# Blender v2.81 (sub 16) OBJ File: ''
# www.blender.org
mtllib untitled.mtl
o rock.025
v 0.520782 0.637565 0.096943
v 0.344600 0.794643 0.139244
v 0.427109 0.272609 0.228767
v 0.507711 0.504146 0.322394
v 0.550358 0.445034 0.217135
v 0.495009 0.202012 -0.006003
v 0.557160 0.351282 0.062306
v 0.542066 0.622825 -0.189793
v 0.555179 0.604086 -0.019663
v 0.376757 0.714161 -0.227011
v 0.369324 0.838779 -0.072417
v 0.467034 0.747841 0.057085
v 0.582816 0.367026 -0.047037
v 0.502743 0.419469 -0.254102
v 0.043325 1.022460 -0.319929
v -0.071597 1.264394 -0.086676
v 0.100201 1.227090 -0.158332
v -0.126500 1.162930 -0.272312
v -0.327032 1.089501 -0.290555
v -0.260364 1.225850 -0.165695
v -0.365697 1.184555 -0.054529
v -0.456860 1.067599 -0.088769
v -0.006769 1.252407 0.288244
v -0.049584 1.281631 0.061065
v 0.028719 1.287982 0.165465
v 0.167862 1.121380 0.196795
v -0.270570 1.258493 0.186198
v -0.457502 1.160320 0.195840
v -0.488630 1.089182 0.089620
v -0.343270 1.148217 0.349182
v -0.319924 1.020313 0.389813
v 0.005931 0.914089 0.455781
v 0.039578 0.613447 0.555460
v -0.106636 0.298774 0.570262
v -0.270720 0.358526 0.534906
v 0.196873 0.593550 0.478519
v 0.311779 0.580187 0.418719
v 0.124233 0.897259 -0.277693
v 0.293098 0.855282 -0.210615
v 0.109899 0.615254 -0.250976
v 0.380692 0.481515 -0.287005
v 0.164006 0.379668 -0.372075
v -0.081600 0.756877 -0.380676
v -0.282568 0.620099 -0.428896
v 0.027578 0.401476 -0.400253
v -0.204962 0.997605 -0.328125
v -0.317196 0.875554 -0.346818
v 0.307395 0.404820 0.371459
v 0.200534 0.390225 0.430452
v -0.086755 0.110341 0.323879
v -0.275776 0.178259 0.342281
v -0.136877 0.080431 0.155002
v -0.100200 0.076963 0.071956
v -0.353960 0.203968 0.070533
v -0.302194 0.119386 0.103269
v 0.249881 0.173280 0.277950
v 0.181029 0.050207 0.143173
v 0.367085 0.131985 0.056668
v 0.141614 0.109632 -0.023959
v 0.304045 0.138524 -0.077542
v 0.409973 0.187024 -0.168543
v 0.009748 0.117129 -0.091105
v -0.353339 0.233927 -0.029189
v -0.111172 0.216338 -0.194275
v 0.024306 0.238111 -0.330435
v -0.125020 0.338750 -0.327355
v -0.222882 0.345019 -0.236595
v 0.156359 0.223243 -0.337046
v 0.326022 0.245103 -0.305725
v -0.511376 0.634721 -0.196142
v -0.464830 0.512770 -0.316114
v -0.317362 0.375349 -0.271041
v -0.362557 0.556501 -0.422139
v -0.310297 0.484236 -0.369419
v -0.539910 0.613127 -0.018494
v -0.514048 0.422978 -0.113889
v -0.392248 0.349943 -0.183776
v -0.484779 0.351417 -0.024837
v -0.430613 1.068636 -0.196319
v -0.491659 0.912273 -0.062131
v -0.543595 0.765648 0.000978
v -0.427749 0.858755 -0.309196
v -0.403197 0.974529 -0.282865
v -0.558323 0.724611 0.124538
v -0.522607 0.972290 0.138627
v -0.519248 0.559840 0.240468
v -0.477116 0.363620 0.287883
v -0.562063 0.488069 0.105346
v -0.453150 0.579216 0.331411
v -0.380698 0.493494 0.446257
v -0.465402 0.859074 0.293722
v -0.419594 1.000665 0.326181
v -0.326214 0.756927 0.380194
v -0.365877 0.856327 0.380447
v 0.558663 0.370301 -0.170448
v 0.098427 1.263247 0.035200
v 0.171985 0.869055 0.387732
v 0.226649 0.731528 0.353464
v -0.048035 0.507054 -0.411589
v -0.115613 0.585015 -0.446130
v -0.219931 1.009865 0.421442
v -0.256941 1.227095 -0.027073
v 0.474890 0.609882 0.260429
v -0.270153 1.235460 0.330010
v -0.023114 1.195115 0.383893
v -0.403479 1.182549 0.112757
v -0.135478 0.775169 0.471944
v 0.156255 0.941593 0.291095
v -0.123309 0.426599 0.576008
v 0.003906 0.128250 0.401664
v 0.304879 0.282184 0.331231
v -0.297238 0.249584 0.481494
v 0.052011 0.137309 -0.236070
v -0.268124 0.271202 -0.193313
v -0.519492 0.363573 0.122106
v -0.175853 0.429659 -0.366564
v 0.313522 0.939412 0.028997
vn 0.5980 0.5629 0.5705
vn 0.9128 0.3763 0.1585
vn 0.3636 -0.2971 0.8829
vn 0.5300 0.5692 0.6287
vn 0.3464 -0.2522 0.9036
vn 0.7819 -0.4975 0.3757
vn 0.5810 -0.7177 0.3839
vn 0.7830 0.6219 0.0082
vn 0.7776 0.6269 0.0494
vn 0.9804 0.0498 -0.1906
vn 0.8347 0.0127 -0.5505
vn 0.3310 0.2257 -0.9162
vn 0.2671 0.0145 -0.9635
vn -0.1985 0.9801 -0.0039
vn 0.0061 0.8929 -0.4502
vn 0.2404 0.5595 -0.7932
vn 0.0998 0.9865 -0.1300
vn -0.5569 0.6924 -0.4588
vn -0.2315 0.0886 -0.9688
vn -0.3644 0.9312 0.0006
vn -0.7505 0.6368 -0.1770
vn -0.0285 0.9907 0.1328
vn -0.3145 0.9322 0.1792
vn 0.8393 0.2090 0.5019
vn 0.8276 0.5473 0.1249
vn -0.4545 0.8793 0.1422
vn -0.6063 0.6181 0.5004
vn -0.4666 0.8819 -0.0675
vn -0.3486 0.9348 -0.0675
vn -0.1494 0.3300 0.9321
vn 0.6475 0.4303 0.6290
vn 0.4122 0.7596 0.5031
vn 0.6954 0.2447 0.6756
vn 0.7247 0.2828 0.6283
vn 0.7443 0.4067 0.5297
vn -0.4143 -0.1676 0.8946
vn -0.0441 0.2433 0.9689
vn -0.1958 0.2742 0.9415
vn 0.1527 -0.0245 0.9880
vn 0.4493 -0.1675 0.8775
vn 0.4339 -0.1999 0.8785
vn 0.4941 -0.2377 0.8363
vn 0.5022 -0.1068 -0.8581
vn 0.5788 0.4002 -0.7105
vn 0.3484 -0.0896 -0.9331
vn 0.8479 0.4734 -0.2385
vn 0.4346 0.4887 -0.7565
vn 0.2089 0.0447 -0.9769
vn -0.0356 0.1921 -0.9807
vn 0.5244 0.6449 0.5559
vn 0.6023 0.1772 -0.7783
vn -0.0208 0.3594 -0.9329
vn -0.2078 -0.4830 -0.8506
vn -0.1455 -0.4057 -0.9023
vn 0.0185 0.3081 -0.9512
vn -0.0446 0.1912 -0.9805
vn 0.4509 -0.5655 0.6906
vn 0.4773 -0.4417 0.7597
vn -0.2444 -0.8778 0.4120
vn -0.3183 -0.3537 0.8795
vn -0.1201 -0.7363 0.6659
vn -0.7265 -0.1518 0.6702
vn 0.0603 -0.9858 0.1567
vn -0.7158 -0.6555 0.2406
vn -0.6950 -0.5864 -0.4160
vn 0.3935 -0.7701 0.5021
vn -0.1419 -0.9703 0.1957
vn 0.5299 -0.7434 0.4081
vn 0.2226 -0.9008 -0.3728
vn 0.5222 -0.7406 0.4230
vn 0.0121 -0.9909 -0.1344
vn 0.0555 -0.9394 -0.3383
vn -0.4736 -0.8429 -0.2554
vn -0.3097 -0.8798 -0.3606
vn -0.5065 -0.7460 -0.4324
vn -0.4307 -0.8636 -0.2621
vn -0.2309 -0.4708 -0.8515
vn -0.4711 -0.6684 -0.5756
vn -0.5407 -0.6464 -0.5383
vn -0.4665 -0.6747 -0.5720
vn -0.4642 -0.6602 -0.5905
vn -0.5765 -0.5734 -0.5821
vn 0.3703 -0.0121 -0.9288
vn -0.4509 -0.6753 -0.5836
vn -0.3444 -0.7030 -0.6222
vn -0.9568 -0.0947 -0.2749
vn -0.9875 0.0203 -0.1562
vn -0.8934 -0.4446 -0.0637
vn -0.9804 0.1376 -0.1408
vn -0.9572 0.1781 -0.2280
vn -0.8266 0.0516 -0.5604
vn -0.9624 0.1809 -0.2024
vn -0.3464 0.2619 -0.9008
vn -0.2834 0.2583 -0.9236
vn -0.7735 0.2920 -0.5625
vn -0.6605 0.3949 -0.6386
vn -0.2474 0.3650 -0.8975
vn -0.3470 0.2774 -0.8959
vn -0.9006 0.0862 0.4261
vn -0.9692 0.1508 -0.1945
vn -0.9517 -0.0098 0.3068
vn -0.9584 -0.1466 0.2450
vn -0.6921 -0.6998 0.1771
vn -0.8497 -0.0120 0.5271
vn -0.6389 -0.2568 0.7251
vn -0.5351 -0.0205 0.8445
vn -0.2987 0.0292 0.9539
vn 0.8934 0.3285 0.3064
vn -0.8932 0.1358 0.4286
vn 0.8050 0.5049 0.3115
vn 0.5654 0.6926 0.4480
vn 0.6997 -0.4634 0.5437
vn 0.5450 -0.4704 0.6941
vn 0.9909 0.1302 -0.0353
vn 0.9619 0.0911 0.2576
vn 0.7721 -0.5280 0.3537
vn 0.8488 0.2442 -0.4689
vn 0.4985 0.6865 -0.5294
vn 0.7812 0.6015 -0.1670
vn 0.9905 0.1227 -0.0628
vn 0.8493 -0.4965 -0.1794
vn 0.7320 -0.5973 -0.3279
vn 0.6207 -0.5098 -0.5957
vn 0.9672 0.0851 0.2392
vn 0.8880 -0.4363 0.1455
vn 0.3639 0.2384 -0.9004
vn 0.6152 -0.4274 -0.6625
vn 0.0073 0.8652 -0.5014
vn 0.1361 0.9741 -0.1807
vn 0.8283 0.5520 -0.0955
vn -0.2000 0.7131 -0.6719
vn -0.0008 0.3202 -0.9474
vn -0.0372 0.3354 -0.9413
vn -0.2214 0.9719 -0.0804
vn -0.6137 0.7253 -0.3120
vn -0.7545 0.6358 -0.1628
vn -0.6967 0.6868 -0.2072
vn 0.0990 0.9860 -0.1342
vn 0.6743 0.5770 0.4609
vn 0.7164 0.6473 0.2604
vn 0.6741 0.6342 0.3786
vn -0.6807 0.6851 -0.2593
vn -0.1892 0.9697 -0.1548
vn -0.4224 0.8925 -0.1584
vn -0.0384 0.9867 0.1581
vn 0.0269 0.8555 0.5171
vn -0.1513 0.3483 0.9251
vn -0.5533 0.1588 0.8177
vn -0.2687 0.2467 0.9311
vn 0.4483 0.3261 0.8322
vn 0.3567 -0.0899 0.9299
vn 0.9328 0.3442 0.1065
vn 0.7456 0.4976 0.4432
vn -0.1790 0.2915 0.9397
vn -0.3443 0.0774 0.9357
vn -0.0703 0.1856 0.9801
vn -0.3826 0.2520 0.8889
vn -0.4365 0.3027 0.8472
vn -0.3744 0.2763 0.8851
vn -0.2358 -0.0743 0.9689
vn 0.4347 0.5515 0.7120
vn 0.4094 -0.2029 0.8895
vn 0.4522 -0.0087 -0.8919
vn 0.3443 -0.1059 -0.9329
vn 0.2315 0.2466 -0.9411
vn 0.6788 0.6728 -0.2941
vn 0.7798 0.5052 -0.3698
vn 0.6388 0.1784 -0.7484
vn 0.1188 0.4754 -0.8717
vn -0.0988 0.0186 -0.9949
vn -0.1908 -0.2389 -0.9521
vn -0.0494 -0.4401 -0.8966
vn -0.0096 -0.5939 -0.8045
vn 0.0104 0.2183 -0.9758
vn 0.3930 -0.3866 0.8343
vn 0.4930 -0.2803 0.8237
vn -0.2529 -0.8359 0.4872
vn -0.2957 -0.9217 0.2510
vn -0.3041 -0.9166 0.2594
vn 0.1477 -0.9833 0.1063
vn -0.2132 -0.9756 -0.0534
vn 0.5006 -0.5711 0.6506
vn -0.0051 -0.9426 -0.3339
vn 0.0499 -0.9771 -0.2070
vn 0.1102 -0.9246 -0.3646
vn 0.3459 -0.9335 -0.0949
vn 0.3818 -0.8970 -0.2230
vn 0.1379 -0.9840 -0.1127
vn -0.3419 -0.8448 -0.4116
vn -0.6285 -0.6898 -0.3595
vn -0.3421 -0.8325 -0.4357
vn -0.2702 -0.3738 -0.8873
vn -0.1549 -0.4274 -0.8907
vn 0.1211 -0.5563 -0.8221
vn -0.0610 -0.8262 -0.5601
vn -0.1138 -0.6955 -0.7095
vn 0.4244 -0.8574 -0.2911
vn 0.1990 -0.8528 -0.4828
vn -0.0898 -0.3899 -0.9165
vn 0.1628 -0.2232 -0.9611
vn 0.2047 -0.2234 -0.9530
vn -0.7354 0.0922 -0.6713
vn -0.3564 -0.6135 -0.7047
vn -0.2448 -0.6412 -0.7273
vn -0.9786 -0.0636 -0.1955
vn -0.6336 -0.6380 -0.4375
vn -0.6223 -0.6973 -0.3558
vn -0.6540 -0.7234 -0.2214
vn -0.9210 -0.3404 -0.1894
vn -0.9236 0.1718 -0.3428
vn -0.9569 0.1746 -0.2318
vn -0.9607 0.1975 -0.1950
vn -0.8870 0.1041 -0.4499
vn -0.9428 0.3332 -0.0017
vn -0.6343 0.0758 0.7693
vn -0.8749 0.1643 0.4557
vn -0.9491 0.3064 0.0729
vn -0.9885 0.0277 -0.1488
vn -0.9926 -0.0085 -0.1211
vn -0.8789 -0.2455 0.4089
vn -0.7074 -0.6983 -0.1093
vn -0.6844 0.3074 0.6612
vn -0.8055 -0.0299 0.5918
vn -0.7706 -0.1752 0.6128
vn -0.6918 -0.6804 0.2419
vn -0.7539 0.2987 0.5852
vn -0.6484 0.1389 0.7485
usemtl None
s off
f 2//1 12//1 117//1
f 4//2 5//2 103//2
f 4//3 48//3 111//3
f 37//4 4//4 98//4
f 48//5 4//5 37//5
f 6//6 7//6 3//6
f 3//7 58//7 6//7
f 9//8 8//8 11//8
f 11//9 1//9 9//9
f 8//10 13//10 95//10
f 14//11 8//11 95//11
f 10//12 8//12 14//12
f 14//13 69//13 41//13
f 20//14 102//14 16//14
f 16//15 17//15 20//15
f 17//16 15//16 18//16
f 24//17 96//17 16//17
f 79//18 20//18 19//18
f 46//19 83//19 19//19
f 102//20 20//20 21//20
f 79//21 22//21 21//21
f 23//22 24//22 27//22
f 24//23 23//23 25//23
f 26//24 108//24 117//24
f 117//25 96//25 26//25
f 28//26 104//26 27//26
f 30//27 104//27 28//27
f 27//28 106//28 28//28
f 102//29 21//29 106//29
f 104//30 30//30 105//30
f 32//31 36//31 98//31
f 32//32 97//32 108//32
f 108//33 105//33 32//33
f 26//34 105//34 108//34
f 108//35 98//35 2//35
f 107//36 94//36 93//36
f 101//37 32//37 105//37
f 109//38 33//38 107//38
f 109//39 34//39 33//39
f 33//40 34//40 49//40
f 36//41 49//41 37//41
f 48//42 37//42 49//42
f 40//43 43//43 38//43
f 15//44 17//44 39//44
f 39//45 38//45 15//45
f 39//46 17//46 117//46
f 40//47 42//47 99//47
f 45//48 99//48 42//48
f 41//49 40//49 39//49
f 103//50 2//50 98//50 4//50
f 100//51 43//51 99//51
f 44//52 43//52 100//52
f 45//53 66//53 116//53
f 74//54 100//54 116//54
f 47//55 43//55 44//55
f 46//56 43//56 47//56
f 56//57 111//57 110//57
f 49//58 34//58 110//58
f 110//59 112//59 51//59
f 34//60 35//60 112//60
f 112//61 110//61 34//61
f 90//62 112//62 35//62
f 52//63 110//63 50//63
f 51//64 115//64 55//64
f 55//65 115//65 54//65
f 56//66 110//66 57//66
f 110//67 53//67 57//67
f 57//68 3//68 56//68
f 59//69 58//69 57//69
f 3//70 57//70 58//70
f 59//71 62//71 113//71
f 59//72 68//72 60//72
f 64//73 113//73 62//73
f 64//74 63//74 114//74
f 63//75 77//75 114//75
f 54//76 63//76 53//76
f 53//77 55//77 54//77
f 113//78 64//78 65//78
f 67//79 66//79 64//79
f 65//80 64//80 66//80
f 114//81 77//81 72//81
f 66//82 67//82 116//82
f 42//83 41//83 69//83
f 71//84 72//84 77//84
f 74//85 71//85 73//85
f 70//86 71//86 76//86
f 75//87 70//87 88//87
f 88//88 76//88 78//88
f 70//89 75//89 80//89
f 79//90 70//90 80//90
f 80//91 75//91 81//91
f 85//92 22//92 80//92
f 47//93 73//93 82//93
f 47//94 44//94 73//94
f 83//95 82//95 79//95
f 79//96 19//96 83//96
f 83//97 46//97 47//97
f 83//98 47//98 82//98
f 91//99 84//99 86//99
f 85//100 80//100 84//100
f 86//101 84//101 88//101
f 87//102 86//102 115//102
f 51//103 87//103 115//103
f 90//104 89//104 87//104
f 93//105 94//105 91//105
f 91//106 31//106 92//106
f 94//107 101//107 31//107
f 103//108 5//108 1//108
f 92//109 85//109 84//109 91//109
f 1//110 12//110 103//110
f 12//111 2//111 103//111
f 4//112 3//112 5//112
f 3//113 4//113 111//113
f 7//114 1//114 5//114
f 7//115 9//115 1//115
f 3//116 7//116 5//116
f 11//117 12//117 1//117
f 8//118 10//118 11//118
f 11//119 117//119 12//119
f 8//120 9//120 13//120
f 95//121 13//121 6//121
f 6//122 61//122 95//122
f 61//123 69//123 95//123
f 7//124 13//124 9//124
f 13//125 7//125 6//125
f 10//126 14//126 41//126
f 69//127 14//127 95//127
f 20//128 17//128 18//128
f 16//129 96//129 17//129
f 96//130 117//130 17//130
f 20//131 18//131 19//131
f 15//132 46//132 18//132
f 46//133 19//133 18//133
f 102//134 24//134 16//134
f 79//135 21//135 20//135
f 21//136 22//136 106//136
f 22//137 29//137 106//137
f 25//138 96//138 24//138
f 26//139 23//139 105//139
f 96//140 25//140 26//140
f 25//141 23//141 26//141
f 28//142 106//142 29//142
f 102//143 27//143 24//143
f 102//144 106//144 27//144
f 104//145 23//145 27//145
f 104//146 105//146 23//146
f 105//147 30//147 101//147
f 30//148 92//148 31//148
f 31//149 101//149 30//149
f 32//150 33//150 36//150
f 98//151 97//151 32//151
f 98//152 108//152 97//152
f 108//153 2//153 117//153
f 33//154 32//154 107//154
f 107//155 101//155 94//155
f 101//156 107//156 32//156
f 90//157 109//157 107//157
f 107//158 93//158 90//158
f 35//159 109//159 90//159
f 35//160 34//160 109//160
f 37//161 98//161 36//161
f 49//162 36//162 33//162
f 38//163 43//163 15//163
f 39//164 40//164 38//164
f 39//165 10//165 41//165
f 39//166 117//166 11//166
f 11//167 10//167 39//167
f 40//168 99//168 43//168
f 41//169 42//169 40//169
f 44//170 100//170 73//170
f 99//171 45//171 116//171
f 116//172 100//172 99//172
f 74//173 73//173 100//173
f 46//174 15//174 43//174
f 49//175 110//175 111//175
f 49//176 111//176 48//176
f 50//177 110//177 51//177
f 50//178 55//178 52//178
f 50//179 51//179 55//179
f 52//180 53//180 110//180
f 52//181 55//181 53//181
f 56//182 3//182 111//182
f 57//183 53//183 59//183
f 59//184 53//184 62//184
f 60//185 68//185 61//185
f 61//186 6//186 60//186
f 58//187 60//187 6//187
f 60//188 58//188 59//188
f 62//189 63//189 64//189
f 63//190 78//190 77//190
f 53//191 63//191 62//191
f 45//192 65//192 66//192
f 67//193 64//193 114//193
f 67//194 114//194 72//194
f 116//195 67//195 72//195
f 68//196 113//196 65//196
f 68//197 59//197 113//197
f 68//198 69//198 61//198
f 65//199 45//199 68//199
f 68//200 45//200 42//200
f 42//201 69//201 68//201
f 71//202 82//202 73//202
f 72//203 71//203 74//203
f 74//204 116//204 72//204
f 88//205 70//205 76//205
f 77//206 76//206 71//206
f 76//207 77//207 78//207
f 78//208 63//208 54//208
f 78//209 115//209 88//209
f 79//210 82//210 70//210
f 80//211 22//211 79//211
f 85//212 29//212 22//212
f 82//213 71//213 70//213
f 84//214 80//214 81//214
f 86//215 89//215 93//215 91//215
f 85//216 92//216 28//216
f 28//217 29//217 85//217
f 75//218 88//218 84//218
f 84//219 81//219 75//219
f 115//220 86//220 88//220
f 115//221 78//221 54//221
f 93//222 89//222 90//222
f 89//223 86//223 87//223
f 87//224 112//224 90//224
f 51//225 112//225 87//225
f 30//226 28//226 92//226
f 94//227 31//227 91//227
