# Blender v2.81 (sub 16) OBJ File: ''
# www.blender.org
mtllib piedra 3.mtl
o rock.019
v 0.070625 0.791627 0.131946
v 0.028018 0.938846 0.058214
v 0.171881 0.743832 0.174238
v 0.253068 0.635026 0.322966
v 0.252253 0.503299 0.330953
v 0.211415 0.695604 0.089335
v 0.129994 0.798782 -0.181858
v 0.240364 0.729705 -0.160528
v 0.110262 0.792891 -0.025789
v 0.235550 0.686743 -0.020041
v 0.190624 0.684113 -0.240972
v 0.288795 0.530124 -0.272530
v -0.079564 0.823454 -0.271672
v 0.064813 0.689474 -0.283161
v 0.032662 0.840829 -0.232367
v -0.072614 0.998405 -0.231554
v -0.036668 1.047383 -0.120701
v -0.000489 0.558414 -0.380121
v 0.307333 0.424340 -0.361831
v 0.098638 0.567977 -0.367410
v -0.069721 0.656576 -0.320877
v -0.170402 0.778807 -0.349210
v -0.190621 0.924111 -0.294453
v -0.268295 0.578116 -0.470511
v -0.267599 0.775409 -0.369643
v -0.220347 0.665620 -0.421825
v -0.375616 0.751714 -0.312969
v -0.371707 0.666551 -0.414665
v -0.481269 0.476894 -0.373797
v -0.443590 0.737897 -0.107725
v -0.316959 0.856626 -0.195505
v -0.412348 0.812491 -0.079151
v -0.494380 0.704642 -0.166129
v -0.638739 0.586477 -0.215330
v -0.619211 0.468084 -0.260241
v -0.517260 0.721498 0.018704
v -0.536131 0.702057 -0.104941
v -0.574872 0.661692 -0.013427
v -0.410985 0.916085 0.073251
v -0.463021 0.846126 0.251861
v -0.388508 0.960090 0.165511
v -0.552196 0.778741 0.168002
v -0.636072 0.658147 0.112524
v -0.522876 0.728495 0.272680
v -0.659842 0.627561 0.169088
v -0.628756 0.524355 0.362062
v -0.374452 0.787387 0.387831
v -0.324586 0.946363 0.325666
v -0.222387 1.068550 0.196030
v -0.356572 0.576970 0.527504
v -0.535899 0.477999 0.492359
v -0.256807 0.776092 0.466849
v -0.236006 0.892854 0.409588
v -0.348086 0.654967 0.471609
v -0.158502 0.751474 0.507258
v 0.039307 0.780364 0.381189
v -0.084281 0.897533 0.321074
v -0.094332 0.813125 0.405555
v 0.113726 0.683595 0.412024
v 0.011414 0.554124 0.486407
v 0.140599 0.500363 0.415439
v 0.180950 0.024448 0.057258
v 0.293515 0.118543 0.138701
v 0.244360 0.242283 0.293751
v 0.165718 0.066176 -0.067949
v -0.016045 0.141294 -0.226528
v 0.035441 0.037102 0.096225
v 0.009492 0.059001 -0.007691
v -0.068658 0.110584 -0.125226
v 0.366283 0.099904 -0.003168
v 0.395247 0.182170 -0.113139
v 0.236381 0.272331 -0.424214
v 0.211023 0.141125 -0.233225
v 0.088278 0.135967 -0.240697
v -0.096408 0.218495 -0.512592
v 0.027104 0.172307 -0.421855
v -0.181243 0.138966 -0.215521
v -0.235714 0.036966 0.040560
v -0.299115 0.213165 -0.304573
v -0.548247 0.175069 -0.161835
v -0.377248 0.186031 -0.208639
v -0.333521 0.146612 -0.129211
v -0.569721 0.098936 0.014149
v -0.471200 0.117875 0.233253
v -0.621265 0.207252 0.165771
v -0.297250 0.119008 0.323265
v -0.508992 0.188544 0.390188
v -0.309229 0.135458 0.445928
v -0.068536 0.011722 0.086227
v -0.213927 0.078858 0.197957
v -0.169991 0.118300 0.469389
v -0.042668 0.253871 0.519071
v -0.139113 0.051361 0.335419
v 0.150947 0.120846 0.230632
v -0.013682 0.148936 0.402323
v 0.470226 0.311803 -0.006713
v 0.388054 0.406206 0.158272
v 0.370731 0.523702 0.150632
v 0.351448 0.242669 0.190943
v 0.460933 0.451559 0.028927
v 0.387503 0.566249 -0.133306
v 0.457936 0.431950 -0.122710
v 0.437168 0.300754 -0.155788
v 0.380140 0.271266 -0.290769
v 0.298096 0.635507 -0.154132
v -0.135842 0.443317 -0.537906
v -0.027274 0.331228 -0.557213
v -0.160116 0.310319 -0.511036
v -0.285125 0.277034 -0.433092
v -0.387732 0.337926 -0.370626
v -0.092908 0.551085 -0.456590
v -0.152267 0.637085 -0.388676
v -0.773998 0.477577 -0.005105
v -0.738827 0.416197 -0.106538
v -0.778891 0.338034 -0.017256
v -0.656355 0.338724 -0.240565
v -0.723548 0.212666 -0.007418
v -0.709990 0.423769 0.186175
v -0.648865 0.402035 0.341235
v -0.643901 0.616841 -0.060108
v -0.749260 0.554180 0.110154
v -0.260894 0.555956 0.594385
v -0.235263 0.281711 0.613874
v -0.354346 0.435209 0.621297
v -0.517612 0.281660 0.484077
v -0.385688 0.215081 0.495476
v -0.083035 0.492271 0.526353
v -0.025509 0.417178 0.503258
v -0.126439 0.403231 0.583592
v -0.149477 0.572721 0.564217
v 0.101142 0.847004 -0.099181
v -0.393328 0.756228 -0.224121
v -0.549763 0.613416 -0.331080
v -0.291357 1.044084 -0.070937
v -0.487984 0.626393 0.409598
v -0.034685 0.690537 0.493818
v 0.112032 0.738649 0.286693
v -0.428358 0.103119 0.159195
v -0.281414 0.398769 -0.470210
v 0.091330 0.432391 -0.483886
v -0.209415 0.682064 0.552795
v -0.047280 0.998791 0.148643
v 0.094592 0.783397 0.193035
v 0.095890 0.808763 0.041175
v -0.473541 0.837834 0.107717
v -0.431601 0.774576 0.318667
v -0.038949 0.926182 0.238972
v -0.152942 0.124373 -0.306482
v -0.139617 0.159269 -0.394837
v -0.432444 0.045561 0.025371
v 0.327324 0.605934 0.042514
v -0.190135 0.518174 -0.509734
v -0.642710 0.240417 -0.200096
v -0.150344 1.112555 -0.075413
v 0.099533 0.322145 0.421735
vn 0.5400 0.8358 -0.0993
vn 0.8576 0.4062 0.3154
vn 0.8339 0.0283 0.5511
vn 0.5176 0.8055 0.2885
vn 0.3674 0.8718 -0.3241
vn 0.5979 0.7408 0.3063
vn 0.5478 0.7917 -0.2706
vn 0.8879 0.4524 0.0834
vn 0.5044 0.8108 -0.2969
vn 0.7689 0.4840 -0.4178
vn 0.8316 0.5225 0.1883
vn 0.6793 0.3735 -0.6317
vn 0.2858 0.5542 -0.7818
vn 0.2592 0.3563 -0.8977
vn 0.3632 0.1945 -0.9112
vn 0.2957 0.2023 -0.9336
vn -0.1447 0.7631 -0.6299
vn 0.2939 0.8354 -0.4644
vn 0.4685 0.4540 -0.7579
vn 0.4173 0.5791 -0.7003
vn 0.5664 0.2875 -0.7723
vn -0.6863 0.4652 -0.5590
vn -0.3751 0.7357 -0.5639
vn -0.4535 0.6746 -0.5824
vn -0.0378 0.5016 -0.8643
vn -0.4746 0.5803 -0.6618
vn 0.1876 0.2857 -0.9398
vn -0.4702 0.6677 -0.5772
vn -0.4355 0.0580 -0.8983
vn -0.7010 0.6290 -0.3361
vn -0.5875 0.7903 -0.1741
vn -0.5148 0.8449 -0.1455
vn -0.5749 0.7904 -0.2116
vn -0.3588 0.9103 -0.2063
vn -0.3620 0.9277 -0.0906
vn -0.6635 0.6146 -0.4268
vn -0.7970 0.5972 -0.0907
vn -0.7668 0.4679 0.4394
vn -0.8268 0.5618 0.0280
vn -0.5541 0.8298 0.0671
vn -0.7249 0.5692 -0.3879
vn -0.6565 0.6402 -0.3991
vn 0.6416 -0.2239 -0.7336
vn -0.5638 0.8087 -0.1679
vn -0.7248 0.5522 0.4121
vn -0.9225 0.0876 0.3759
vn -0.6296 0.3643 0.6862
vn 0.3345 0.7172 0.6114
vn -0.7727 -0.0984 0.6271
vn -0.4660 0.4551 0.7588
vn -0.2360 0.4614 0.8552
vn -0.5183 0.4198 0.7451
vn 0.8419 0.4559 0.2888
vn 0.4335 0.7215 0.5399
vn 0.2874 0.6478 0.7055
vn 0.3755 0.6329 0.6771
vn 0.3889 0.6584 0.6445
vn 0.3926 0.6555 0.6451
vn 0.4218 0.5533 0.7183
vn 0.7193 0.6396 0.2712
vn 0.5182 0.1292 0.8454
vn 0.4840 0.0872 0.8707
vn 0.6015 -0.1107 0.7911
vn 0.4474 -0.8279 0.3382
vn 0.7271 -0.5254 0.4420
vn 0.5878 -0.5312 0.6102
vn -0.0960 -0.9376 -0.3341
vn -0.0211 -0.9057 -0.4234
vn 0.2601 -0.9061 -0.3336
vn 0.4316 -0.7692 -0.4711
vn 0.2941 -0.9033 -0.3124
vn -0.0594 -0.9963 -0.0628
vn 0.2929 -0.6299 -0.7194
vn -0.2737 -0.8721 -0.4056
vn 0.0536 -0.9315 -0.3596
vn -0.4297 -0.7891 -0.4389
vn -0.4474 -0.2961 -0.8439
vn -0.6352 -0.6619 -0.3981
vn -0.3014 -0.8612 -0.4093
vn -0.0251 -0.8293 -0.5582
vn -0.4012 -0.3958 -0.8261
vn -0.1588 -0.6596 -0.7346
vn -0.0565 -0.9064 -0.4187
vn 0.0054 -0.8386 -0.5447
vn 0.6232 0.7650 0.1626
vn -0.1081 -0.9851 0.1338
vn -0.5701 -0.7918 0.2192
vn -0.1410 -0.9829 0.1180
vn -0.1837 -0.9121 0.3665
vn -0.3929 -0.6707 0.6291
vn -0.3951 -0.9181 0.0314
vn -0.3979 -0.9168 0.0331
vn 0.3201 -0.9027 0.2874
vn 0.4744 -0.3981 0.7852
vn 0.6404 -0.4853 0.5952
vn 0.8357 0.1574 0.5261
vn 0.8677 -0.0968 0.4876
vn 0.8391 -0.4056 0.3624
vn 0.6875 -0.1228 0.7157
vn 0.8932 -0.4397 -0.0937
vn 0.6802 -0.0167 -0.7329
vn 0.8343 0.1507 -0.5303
vn 0.6079 0.7935 0.0290
vn 0.2313 0.3784 -0.8963
vn -0.2397 -0.1500 -0.9592
vn -0.3335 -0.1630 -0.9286
vn 0.1961 0.7045 -0.6821
vn -0.4299 0.0299 -0.9024
vn -0.4651 -0.2452 -0.8506
vn -0.5983 -0.2169 -0.7713
vn -0.8039 0.1430 -0.5773
vn -0.8039 -0.3731 0.4631
vn -0.7514 0.6424 -0.1507
vn -0.6677 0.7302 -0.1444
vn 0.1766 0.0862 0.9805
vn -0.4555 -0.3920 0.7993
vn -0.4223 0.4956 0.7590
vn -0.2962 -0.4418 0.8468
vn 0.5903 0.2128 0.7786
vn 0.6218 0.0105 0.7831
vn 0.4373 0.3257 0.8383
vn 0.2845 -0.2057 0.9363
vn 0.2236 0.2217 0.9491
vn -0.4478 0.4396 0.7786
vn 0.2976 0.2591 0.9189
vn -0.7943 0.4773 0.3759
vn 0.8130 0.4312 0.3912
vn -0.7105 -0.0035 -0.7037
vn 0.4923 0.8084 0.3227
vn 0.7890 0.6141 0.0186
vn 0.6314 0.7706 0.0872
vn 0.7837 0.6041 0.1448
vn 0.4972 0.7968 0.3433
vn 0.5496 0.0472 0.8341
vn 0.6774 0.7300 0.0903
vn 0.6292 0.7735 0.0762
vn 0.8978 0.4003 0.1836
vn 0.5486 0.3684 -0.7505
vn 0.8205 0.5695 0.0489
vn 0.6884 0.6220 0.3731
vn 0.6470 0.7614 -0.0416
vn 0.6194 0.7446 0.2489
vn 0.4929 0.5902 -0.6393
vn 0.5835 0.5833 -0.5650
vn 0.6647 0.5314 -0.5252
vn 0.7380 0.4954 -0.4582
vn 0.0486 0.5783 -0.8144
vn 0.0931 0.5618 -0.8220
vn 0.0346 0.6502 -0.7590
vn 0.2775 0.5984 -0.7516
vn 0.4452 0.6219 -0.6442
vn 0.4917 0.1242 -0.8619
vn 0.1926 0.2880 -0.9381
vn 0.5467 0.2663 -0.7938
vn -0.7567 0.6277 -0.1827
vn -0.6288 0.7090 -0.3193
vn 0.4936 0.3660 -0.7890
vn -0.0404 0.4147 -0.9091
vn 0.1789 0.3686 -0.9122
vn 0.5405 0.5395 -0.6456
vn -0.4389 0.0603 -0.8965
vn -0.8384 0.4620 -0.2893
vn -0.8028 0.4964 -0.3302
vn -0.8415 0.4502 -0.2985
vn -0.7733 0.4208 -0.4743
vn -0.4863 0.8707 -0.0729
vn -0.5818 0.7677 -0.2685
vn 0.6234 0.6912 0.3656
vn -0.6367 0.0660 -0.7683
vn -0.7839 0.4794 -0.3946
vn -0.7746 0.5413 -0.3271
vn -0.5901 0.8007 0.1033
vn -0.7204 0.6935 0.0009
vn -0.6017 0.7987 -0.0020
vn -0.4358 0.8995 0.0302
vn -0.7819 0.6149 -0.1028
vn -0.8144 0.5797 -0.0288
vn -0.7249 0.5194 0.4524
vn -0.5805 0.5599 0.5912
vn -0.5677 0.4147 0.7112
vn -0.9029 -0.0216 0.4293
vn -0.7217 0.5553 0.4132
vn -0.4596 0.4448 0.7687
vn -0.7321 0.4347 0.5244
vn -0.6619 0.6769 0.3222
vn -0.5600 0.7761 0.2900
vn -0.1273 0.7699 0.6253
vn -0.6908 0.5505 0.4688
vn -0.4724 0.4366 0.7657
vn -0.4386 0.3628 0.8222
vn -0.4290 0.5565 0.7115
vn -0.4394 0.5416 0.7167
vn -0.6024 0.5713 0.5575
vn -0.5899 0.5301 0.6090
vn -0.8084 0.0328 0.5878
vn -0.5014 0.5393 0.6765
vn -0.1600 0.6208 0.7674
vn 0.4240 -0.7365 0.5270
vn 0.4519 0.7348 0.5059
vn 0.7781 0.6282 0.0069
vn 0.4163 0.8736 0.2521
vn 0.2883 0.6600 0.6937
vn 0.5985 0.1026 0.7945
vn 0.4750 -0.0198 0.8797
vn 0.0564 -0.8684 0.4926
vn 0.3109 -0.8068 0.5024
vn 0.4056 -0.6474 0.6453
vn -0.1608 -0.9421 -0.2944
vn -0.0316 -0.9796 -0.1985
vn -0.0916 -0.9328 -0.3485
vn 0.2525 -0.9322 -0.2595
vn 0.0391 -0.9052 -0.4232
vn 0.2613 -0.9040 -0.3383
vn 0.4632 -0.7639 -0.4494
vn 0.4541 -0.7803 -0.4300
vn 0.8697 -0.4076 -0.2784
vn -0.0936 -0.9370 -0.3366
vn 0.0627 -0.9153 -0.3979
vn -0.0031 -0.8929 -0.4502
vn 0.0423 -0.9767 -0.2102
vn 0.3709 -0.7877 -0.4919
vn 0.0540 -0.9754 -0.2139
vn 0.0249 -0.9858 0.1659
vn -0.2637 -0.8835 -0.3871
vn -0.1432 -0.9157 -0.3756
vn -0.0060 -0.9561 -0.2930
vn -0.5192 -0.8543 -0.0245
vn -0.4831 -0.7870 -0.3837
vn -0.5246 -0.6676 -0.5283
vn -0.4863 -0.6529 -0.5807
vn -0.5104 -0.7648 -0.3932
vn -0.4526 -0.8360 -0.3103
vn -0.1699 -0.7243 -0.6682
vn -0.1733 -0.9028 0.3936
vn -0.0625 -0.9623 0.2648
vn -0.3622 -0.8522 0.3776
vn -0.5911 -0.7377 0.3261
vn -0.5879 -0.7393 0.3283
vn -0.8137 -0.4483 0.3699
vn -0.8138 -0.4484 0.3697
vn -0.3921 -0.8559 0.3373
vn -0.2816 -0.9543 0.1005
vn -0.0732 -0.9854 0.1540
vn -0.2020 -0.6928 0.6923
vn 0.2982 -0.5626 0.7710
vn -0.2498 -0.6731 0.6961
vn -0.3576 -0.7163 0.5993
vn 0.2125 -0.9539 0.2119
vn -0.1475 -0.9662 0.2115
vn -0.2175 -0.9353 0.2790
vn 0.3631 -0.7973 0.4821
vn 0.4078 -0.6264 0.6643
vn -0.4077 -0.0532 -0.9116
vn 0.8787 -0.0623 0.4733
vn 0.8172 0.1566 0.5547
vn 0.6156 -0.1294 0.7774
vn 0.7724 -0.0463 0.6335
vn 0.9968 0.0737 -0.0292
vn 0.7261 0.3334 -0.6013
vn 0.9728 -0.1015 -0.2082
vn 0.9074 -0.3830 -0.1728
vn 0.9239 -0.0506 -0.3793
vn 0.7154 0.5197 -0.4671
vn 0.7562 0.6445 0.1134
vn 0.8855 0.4583 -0.0768
vn 0.7515 0.6345 0.1809
vn 0.6544 0.7559 0.0164
vn 0.4649 0.0931 -0.8804
vn 0.2969 -0.5033 -0.8115
vn -0.4712 -0.1286 -0.8726
vn -0.4164 -0.2999 -0.8583
vn -0.8308 -0.3530 -0.4303
vn 0.2750 0.5069 -0.8170
vn 0.5874 0.3252 -0.7411
vn 0.3348 0.7154 -0.6133
vn 0.4405 0.6708 -0.5967
vn 0.4952 0.1992 -0.8456
vn 0.1607 0.6785 -0.7168
vn 0.1623 0.6781 -0.7168
vn -0.9302 0.0641 -0.3613
vn -0.8722 -0.1000 -0.4789
vn -0.8007 0.0925 -0.5919
vn -0.9799 0.0170 0.1990
vn -0.9339 -0.0777 0.3491
vn -0.8394 -0.3371 0.4264
vn -0.8754 -0.3861 0.2910
vn -0.7549 0.6092 -0.2429
vn -0.8683 0.2293 -0.4399
vn -0.6735 0.7307 0.1121
vn 0.1718 0.0858 0.9814
vn -0.4218 0.4957 0.7592
vn -0.5906 -0.0888 0.8021
vn 0.3839 0.0101 0.9233
vn 0.4188 -0.1519 0.8953
vn 0.5576 0.0218 0.8298
vn 0.4984 -0.0844 0.8628
vn 0.3507 0.0678 0.9340
vn 0.5102 0.0167 0.8599
vn 0.2802 0.3744 0.8839
usemtl None
s off
f 143//1 6//1 1//1
f 1//2 144//2 2//2
f 4//3 5//3 98//3
f 137//4 4//4 143//4
f 6//5 143//5 3//5
f 144//6 1//6 6//6
f 8//7 7//7 131//7
f 2//8 144//8 9//8
f 15//9 131//9 7//9
f 131//10 15//10 17//10
f 8//11 10//11 105//11
f 11//12 8//12 105//12
f 11//13 14//13 7//13
f 13//14 15//14 14//14
f 23//15 16//15 13//15
f 15//16 13//16 16//16
f 16//17 23//17 154//17
f 154//18 17//18 16//18
f 20//19 11//19 12//19
f 19//20 140//20 20//20
f 22//21 21//21 112//21
f 23//22 31//22 134//22
f 134//23 154//23 23//23
f 25//24 28//24 27//24
f 28//25 26//25 24//25
f 25//26 27//26 23//26
f 25//27 22//27 112//27
f 27//28 28//28 133//28
f 28//29 24//29 29//29
f 132//30 32//30 31//30
f 120//31 33//31 34//31
f 33//32 132//32 27//32
f 27//33 34//33 33//33
f 37//34 30//34 33//34
f 37//35 36//35 30//35
f 33//36 120//36 37//36
f 41//37 39//37 145//37
f 42//38 44//38 40//38
f 40//39 41//39 145//39
f 49//40 134//40 41//40
f 145//41 36//41 42//41
f 42//42 36//42 43//42
f 36//43 38//43 120//43
f 120//44 43//44 36//44
f 121//45 46//45 45//45
f 46//46 118//46 119//46
f 146//47 48//47 40//47
f 57//48 49//48 53//48
f 119//49 125//49 51//49
f 47//50 52//50 53//50
f 52//51 55//51 53//51
f 54//52 141//52 52//52
f 1//53 142//53 147//53
f 142//54 49//54 147//54
f 136//55 56//55 58//55
f 57//56 53//56 58//56
f 53//57 55//57 58//57
f 136//58 58//58 55//58
f 56//59 136//59 59//59
f 56//60 59//60 137//60
f 60//61 61//61 136//61
f 136//62 61//62 59//62
f 155//63 5//63 61//63
f 62//64 70//64 63//64
f 63//65 70//65 99//65
f 99//66 64//66 63//66
f 65//67 69//67 66//67
f 89//68 78//68 69//68
f 70//69 62//69 65//69
f 104//70 73//70 72//70
f 149//71 66//71 148//71
f 66//72 149//72 74//72
f 76//73 75//73 72//73
f 77//74 78//74 82//74
f 78//75 77//75 69//75
f 75//76 79//76 109//76
f 109//77 108//77 75//77
f 109//78 79//78 110//78
f 83//79 80//79 150//79
f 80//80 82//80 150//80
f 116//81 110//81 153//81
f 153//82 81//82 80//82
f 81//83 82//83 80//83
f 78//84 150//84 82//84
f 142//85 2//85 17//85 154//85
f 83//86 138//86 84//86
f 85//87 84//87 87//87
f 86//88 91//88 88//88
f 87//89 84//89 86//89
f 87//90 126//90 125//90
f 90//91 93//91 86//91
f 93//92 90//92 89//92
f 93//93 67//93 94//93
f 64//94 155//94 95//94
f 95//95 155//95 92//95
f 100//96 98//96 97//96
f 99//97 96//97 97//97
f 99//98 70//98 96//98
f 64//99 99//99 5//99
f 96//100 70//100 71//100
f 104//101 72//101 19//101
f 19//102 102//102 104//102
f 105//103 151//103 101//103
f 106//104 140//104 107//104
f 108//105 106//105 75//105
f 106//106 107//106 75//106
f 106//107 18//107 140//107
f 152//108 139//108 24//108
f 139//109 108//109 109//109
f 109//110 110//110 139//110
f 35//111 116//111 114//111
f 85//112 118//112 117//112
f 120//113 34//113 113//113
f 43//114 120//114 121//114
f 123//115 129//115 122//115
f 124//116 126//116 123//116
f 50//117 51//117 124//117
f 125//118 126//118 124//118
f 128//119 127//119 129//119
f 92//120 128//120 129//120
f 122//121 129//121 127//121
f 130//122 122//122 127//122
f 130//123 141//123 122//123
f 141//124 50//124 122//124
f 141//125 130//125 136//125
f 1//126 137//126 143//126
f 2//127 142//127 1//127
f 133//128 29//128 35//128 34//128
f 4//129 3//129 143//129
f 3//130 4//130 6//130
f 151//131 6//131 4//131
f 4//132 98//132 151//132
f 137//133 59//133 4//133
f 59//134 5//134 4//134
f 144//135 6//135 10//135
f 6//136 151//136 10//136
f 131//137 2//137 9//137
f 7//138 14//138 15//138
f 2//139 131//139 17//139
f 9//140 8//140 131//140
f 9//141 144//141 10//141
f 10//142 8//142 9//142
f 11//143 7//143 8//143
f 12//144 105//144 101//144
f 105//145 12//145 11//145
f 16//146 17//146 15//146
f 14//147 20//147 18//147
f 14//148 18//148 21//148
f 20//149 140//149 18//149
f 14//150 11//150 20//150
f 19//151 20//151 12//151
f 19//152 72//152 140//152
f 21//153 13//153 14//153
f 13//154 21//154 22//154
f 31//155 27//155 132//155
f 23//156 27//156 31//156
f 23//157 13//157 22//157
f 28//158 25//158 26//158
f 25//159 23//159 22//159
f 112//160 26//160 25//160
f 133//161 28//161 29//161
f 132//162 30//162 32//162
f 39//163 32//163 145//163
f 39//164 134//164 32//164
f 31//165 32//165 134//165
f 33//166 30//166 132//166
f 27//167 133//167 34//167
f 137//168 147//168 57//168 56//168
f 29//169 116//169 35//169
f 36//170 32//170 30//170
f 36//171 145//171 32//171
f 37//172 120//172 38//172
f 38//173 36//173 37//173
f 145//174 42//174 40//174
f 49//175 154//175 134//175
f 39//176 41//176 134//176
f 43//177 45//177 42//177
f 44//178 42//178 45//178
f 44//179 46//179 146//179
f 44//180 146//180 40//180
f 121//181 118//181 46//181
f 45//182 46//182 44//182
f 48//183 47//183 53//183
f 47//184 48//184 146//184
f 48//185 41//185 40//185
f 49//186 41//186 48//186
f 53//187 49//187 48//187
f 135//188 47//188 146//188
f 47//189 135//189 52//189
f 54//190 52//190 135//190
f 50//191 54//191 135//191
f 135//192 51//192 50//192
f 146//193 46//193 135//193
f 51//194 135//194 46//194
f 46//195 119//195 51//195
f 54//196 50//196 141//196
f 52//197 141//197 55//197
f 95//198 93//198 94//198 64//198
f 147//199 49//199 57//199
f 137//200 1//200 147//200
f 142//201 154//201 49//201
f 56//202 57//202 58//202
f 61//203 5//203 59//203
f 60//204 128//204 61//204
f 67//205 62//205 94//205
f 94//206 62//206 63//206
f 94//207 63//207 64//207
f 62//208 67//208 65//208
f 65//209 67//209 68//209
f 65//210 68//210 69//210
f 89//211 68//211 67//211
f 89//212 69//212 68//212
f 70//213 65//213 73//213
f 70//214 73//214 71//214
f 73//215 104//215 71//215
f 104//216 103//216 71//216
f 74//217 65//217 66//217
f 73//218 65//218 74//218
f 75//219 76//219 149//219
f 74//220 149//220 76//220
f 76//221 72//221 73//221
f 76//222 73//222 74//222
f 148//223 66//223 77//223
f 82//224 79//224 77//224
f 82//225 81//225 79//225
f 69//226 77//226 66//226
f 79//227 148//227 77//227
f 149//228 148//228 79//228
f 75//229 149//229 79//229
f 110//230 79//230 81//230
f 80//231 83//231 117//231
f 117//232 153//232 80//232
f 153//233 110//233 81//233
f 138//234 150//234 90//234
f 150//235 78//235 90//235
f 83//236 150//236 138//236
f 117//237 83//237 85//237
f 84//238 85//238 83//238
f 87//239 125//239 119//239
f 87//240 119//240 85//240
f 86//241 93//241 91//241
f 88//242 87//242 86//242
f 86//243 84//243 138//243
f 91//244 123//244 88//244
f 91//245 92//245 123//245
f 123//246 126//246 88//246
f 87//247 88//247 126//247
f 89//248 67//248 93//248
f 86//249 138//249 90//249
f 78//250 89//250 90//250
f 93//251 95//251 91//251
f 95//252 92//252 91//252
f 108//253 139//253 152//253 106//253
f 100//254 97//254 96//254
f 98//255 5//255 97//255
f 5//256 155//256 64//256
f 97//257 5//257 99//257
f 100//258 96//258 102//258
f 101//259 102//259 12//259
f 103//260 102//260 96//260
f 103//261 96//261 71//261
f 104//262 102//262 103//262
f 19//263 12//263 102//263
f 100//264 101//264 151//264
f 100//265 102//265 101//265
f 151//266 98//266 100//266
f 105//267 10//267 151//267
f 107//268 140//268 72//268
f 72//269 75//269 107//269
f 139//270 110//270 29//270 24//270
f 110//271 116//271 29//271
f 117//272 115//272 116//272 153//272
f 111//273 106//273 152//273
f 18//274 106//274 111//274
f 111//275 112//275 21//275
f 111//276 21//276 18//276
f 24//277 26//277 112//277
f 24//278 112//278 152//278
f 112//279 111//279 152//279
f 113//280 114//280 115//280
f 116//281 115//281 114//281
f 114//282 34//282 35//282
f 121//283 113//283 115//283
f 115//284 118//284 121//284
f 118//285 115//285 117//285
f 119//286 118//286 85//286
f 113//287 121//287 120//287
f 34//288 114//288 113//288
f 43//289 121//289 45//289
f 123//290 122//290 124//290
f 50//291 124//291 122//291
f 124//292 51//292 125//292
f 128//293 60//293 127//293
f 92//294 129//294 123//294
f 92//295 155//295 128//295
f 155//296 61//296 128//296
f 136//297 127//297 60//297
f 136//298 130//298 127//298
f 141//299 136//299 55//299
