# Blender v2.81 (sub 16) OBJ File: ''
# www.blender.org
mtllib piedra 4.mtl
o rock.020
v 0.375793 0.603949 -0.133290
v 0.303259 0.622735 -0.237476
v 0.206960 0.788952 -0.156303
v 0.457375 0.375787 -0.049155
v 0.396139 0.480540 -0.009755
v 0.393045 0.285457 -0.104932
v 0.341464 0.472405 -0.225976
v 0.194949 0.219878 -0.184021
v 0.175255 0.461409 0.183430
v 0.094615 0.620410 0.065491
v -0.033558 0.663862 0.171034
v 0.270616 0.563898 0.025442
v 0.147241 0.739572 -0.048242
v -0.041123 0.506180 0.296738
v -0.054607 0.408512 0.411994
v -0.170944 0.487626 0.337163
v -0.072609 0.212022 0.430691
v 0.147047 0.364551 0.305436
v 0.287283 0.289562 0.226277
v 0.342567 0.187848 0.154136
v -0.187367 0.836874 0.207474
v -0.007920 0.853124 0.073520
v 0.053076 0.945353 -0.008147
v -0.250631 0.762008 0.281844
v -0.331169 0.856850 0.233618
v -0.204724 0.634645 0.286707
v -0.399492 0.560938 0.273076
v -0.085458 1.084511 -0.179786
v -0.097318 1.076452 -0.073179
v -0.006495 0.972073 -0.340999
v 0.076683 1.030827 -0.163341
v -0.265520 0.945516 -0.234281
v -0.144089 0.998189 -0.297961
v -0.267782 1.069848 -0.124475
v -0.128426 0.995267 0.066747
v -0.367850 1.000607 -0.006121
v -0.389345 0.896520 0.170773
v 0.124803 0.808419 -0.293623
v 0.224555 0.585231 -0.320147
v -0.083391 0.899399 -0.358669
v 0.001621 0.492884 -0.366058
v 0.238231 0.342307 -0.219528
v 0.175558 0.418610 -0.290953
v -0.204234 0.506271 -0.360081
v -0.060865 0.338444 -0.319859
v -0.346812 0.413576 -0.231799
v -0.190298 0.711428 -0.381064
v -0.307049 0.649976 -0.305109
v -0.318479 0.811733 -0.228079
v 0.134897 0.126182 -0.117904
v 0.349248 0.139859 -0.011085
v 0.136811 0.160912 0.280584
v -0.019977 0.033400 0.222881
v -0.221095 0.130678 0.071631
v -0.301943 0.131400 0.265718
v -0.179750 0.250503 0.429417
v -0.443151 0.330288 0.257854
v -0.014483 0.084655 0.023455
v -0.177718 0.250454 -0.171348
v -0.445490 0.505287 -0.059215
v -0.361668 0.294674 -0.081631
v -0.448372 0.266454 0.074936
v -0.410751 0.400769 -0.124608
v -0.481484 0.535813 0.211525
v -0.495306 0.428303 0.092527
v -0.335510 0.390413 0.325877
v -0.489009 0.721289 0.111746
v -0.457154 0.784607 0.211221
v -0.456748 0.733942 -0.036132
v -0.435980 0.614550 -0.155507
v -0.448341 0.855048 0.011813
v -0.398586 0.867755 -0.107682
v 0.304706 0.421930 0.128175
v 0.017466 0.243537 -0.252301
v -0.401304 0.924869 0.075051
v -0.248349 1.043352 0.046233
v -0.018155 0.671737 -0.377923
v 0.158122 0.051001 0.127374
vn 0.8597 0.1247 -0.4954
vn 0.8725 0.4100 0.2659
vn 0.5666 0.6278 0.5338
vn 0.8230 0.1676 -0.5427
vn 0.8552 -0.4369 -0.2788
vn 0.9077 -0.3917 0.1505
vn 0.6966 0.3657 0.6172
vn 0.4501 -0.3918 -0.8024
vn 0.6532 0.4526 0.6070
vn 0.3623 0.6668 0.6512
vn 0.4529 0.6534 0.6066
vn 0.4932 0.0041 0.8699
vn 0.6138 0.5430 0.5730
vn 0.5470 0.3237 0.7720
vn 0.6839 0.1749 0.7083
vn 0.2230 0.5856 0.7793
vn -0.3003 0.1815 0.9364
vn 0.5034 0.4616 0.7304
vn 0.1231 0.6331 0.7642
vn 0.2226 0.6400 0.7354
vn 0.4721 0.3813 0.7948
vn -0.1734 0.2838 0.9431
vn -0.1966 0.2219 0.9550
vn -0.0272 0.8136 -0.5808
vn 0.3228 0.8432 -0.4300
vn 0.2373 0.8164 0.5264
vn 0.4475 0.7528 0.4827
vn 0.8131 0.4487 0.3708
vn 0.8036 0.4206 -0.4212
vn 0.7416 0.4512 -0.4964
vn -0.2196 0.8365 -0.5021
vn -0.8034 0.3859 -0.4535
vn -0.5625 0.5415 -0.6248
vn -0.0870 0.9829 0.1625
vn -0.4018 0.8968 0.1849
vn 0.3067 0.2463 -0.9194
vn 0.1163 0.1167 -0.9863
vn 0.4384 0.0929 -0.8940
vn 0.7260 0.5917 -0.3505
vn 0.5934 0.3513 -0.7242
vn 0.2484 -0.4173 -0.8742
vn 0.2337 -0.3642 -0.9015
vn 0.5382 -0.2965 -0.7890
vn 0.3357 -0.4819 -0.8094
vn -0.0335 -0.0698 -0.9970
vn -0.0454 -0.2694 -0.9620
vn -0.6109 -0.1389 -0.7794
vn -0.2935 -0.7032 -0.6476
vn -0.3748 -0.6378 -0.6728
vn -0.0052 -0.1014 -0.9948
vn 0.0402 0.0956 -0.9946
vn -0.3668 0.3130 -0.8761
vn -0.6259 0.2988 -0.7204
vn 0.2111 -0.9288 -0.3047
vn 0.1973 -0.6465 -0.7369
vn 0.5675 0.6085 0.5547
vn 0.3793 -0.7260 0.5736
vn 0.5525 -0.7942 0.2530
vn 0.4380 -0.7005 0.5635
vn 0.5289 -0.2806 0.8009
vn -0.2652 -0.9321 -0.2469
vn -0.1733 -0.7682 0.6164
vn -0.2533 -0.6825 0.6856
vn -0.5827 -0.3855 0.7154
vn -0.2943 -0.8353 -0.4643
vn -0.4471 -0.6792 -0.5820
vn -0.7033 -0.5212 -0.4834
vn -0.8601 0.0327 -0.5091
vn -0.7041 -0.5211 -0.4823
vn -0.9552 0.0398 -0.2934
vn -0.9946 0.0147 0.1023
vn -0.6041 0.0200 0.7966
vn -0.9762 -0.0263 -0.2152
vn -0.9691 0.1460 -0.1989
vn -0.8906 0.3936 0.2278
vn -0.4321 0.5264 0.7323
vn -0.9899 -0.0349 -0.1373
vn -0.7633 0.2330 -0.6026
vn -0.7586 0.2274 -0.6106
vn 0.5504 0.5721 0.6080
vn 0.6909 0.1211 -0.7127
vn 0.7054 0.5960 -0.3836
vn 0.7875 0.2482 0.5641
vn 0.8383 0.0724 0.5404
vn 0.7755 -0.1782 -0.6057
vn 0.3712 -0.3374 -0.8651
vn 0.4604 -0.5746 -0.6767
vn 0.4482 -0.3954 -0.8017
vn 0.4490 0.6679 0.5935
vn 0.4624 0.5900 0.6619
vn 0.3507 0.5609 0.7499
vn -0.2948 0.3560 0.8868
vn 0.4637 0.6386 0.6142
vn 0.4737 0.0403 0.8798
vn 0.0215 0.0928 0.9955
vn 0.1543 0.6114 0.7762
vn 0.0946 0.7540 0.6500
vn 0.6905 0.2812 0.6664
vn 0.4643 0.4871 0.7397
vn 0.5410 0.3168 0.7791
vn 0.4421 0.4128 0.7963
vn -0.9243 -0.1783 -0.3373
vn 0.7924 0.2546 0.5543
vn -0.0741 0.0114 0.9972
vn -0.2934 0.2235 0.9295
vn -0.1962 0.7370 0.6468
vn 0.5204 0.2191 0.8254
vn -0.0592 0.9959 0.0687
vn -0.1964 0.4229 -0.8846
vn 0.4199 0.7414 0.5235
vn 0.3029 0.9472 0.1053
vn -0.7296 0.5138 -0.4513
vn -0.8483 0.4312 -0.3073
vn -0.8652 0.4910 0.1015
vn -0.5441 0.3132 -0.7784
vn -0.7414 0.2649 -0.6166
vn -0.4755 0.7324 0.4874
vn -0.5483 0.7807 0.2997
vn 0.2177 -0.0406 -0.9752
vn 0.2929 -0.2479 -0.9235
vn -0.7457 -0.0797 -0.6615
vn -0.3725 -0.5048 -0.7787
vn -0.5256 -0.0512 -0.8492
vn -0.6660 0.2308 -0.7093
vn -0.2481 -0.8267 -0.5050
vn -0.2390 -0.8291 -0.5054
vn -0.0106 -0.9563 -0.2921
vn 0.3610 -0.6810 -0.6372
vn 0.2927 -0.3604 -0.8857
vn -0.0383 -0.9676 -0.2497
vn 0.5187 -0.2634 0.8134
vn -0.3440 -0.9285 -0.1398
vn -0.5040 -0.8386 -0.2068
vn -0.7998 -0.5592 0.2180
vn 0.3095 -0.6809 0.6637
vn -0.5417 0.0189 0.8404
vn -0.4736 -0.7829 -0.4034
vn -0.4136 -0.7852 -0.4609
vn -0.8917 -0.2531 -0.3753
vn -0.9487 -0.2890 0.1279
vn -0.9651 -0.1285 0.2282
vn -0.5641 0.0800 0.8218
vn -0.9640 0.0946 0.2485
vn -0.8178 0.5531 0.1592
vn -0.9354 0.3444 0.0803
vn -0.6111 0.0607 0.7892
vn -0.9111 0.2048 -0.3576
vn -0.9103 0.2026 -0.3610
usemtl None
s off
f 4//1 7//1 1//1
f 1//2 5//2 4//2
f 5//3 1//3 12//3
f 1//4 7//4 2//4
f 6//5 4//5 51//5
f 4//6 20//6 51//6
f 73//7 19//7 5//7
f 42//8 6//8 8//8
f 10//9 11//9 14//9
f 12//10 10//10 9//10
f 14//11 15//11 9//11
f 17//12 19//12 18//12
f 19//13 9//13 18//13
f 21//14 11//14 22//14
f 23//15 22//15 13//15
f 21//16 25//16 24//16
f 68//17 27//17 24//17
f 35//18 21//18 22//18
f 35//19 76//19 21//19
f 25//20 21//20 76//20
f 26//21 16//21 11//21
f 16//22 26//22 27//22
f 66//23 16//23 27//23
f 33//24 28//24 30//24
f 30//25 28//25 31//25
f 29//26 76//26 35//26
f 29//27 23//27 31//27
f 23//28 3//28 31//28
f 3//29 38//29 31//29
f 31//30 38//30 30//30
f 28//31 33//31 34//31
f 34//32 32//32 36//32
f 32//33 34//33 33//33
f 29//34 34//34 76//34
f 36//35 76//35 34//35
f 39//36 77//36 38//36
f 30//37 77//37 40//37
f 38//38 77//38 30//38
f 38//39 3//39 2//39
f 2//40 39//40 38//40
f 45//41 43//41 74//41
f 45//42 41//42 43//42
f 43//43 39//43 42//43
f 74//44 43//44 42//44
f 44//45 77//45 41//45
f 41//46 45//46 44//46
f 46//47 48//47 44//47
f 45//48 74//48 59//48
f 45//49 59//49 46//49
f 77//50 44//50 47//50
f 47//51 40//51 77//51
f 47//52 33//52 40//52
f 49//53 47//53 48//53
f 78//54 50//54 51//54
f 8//55 50//55 74//55
f 1//56 3//56 13//56 12//56
f 53//57 78//57 52//57
f 51//58 20//58 78//58
f 20//59 52//59 78//59
f 20//60 19//60 52//60
f 54//61 58//61 53//61
f 17//62 55//62 53//62
f 55//63 17//63 56//63
f 55//64 56//64 57//64
f 58//65 54//65 59//65
f 59//66 61//66 46//66
f 63//67 61//67 62//67
f 63//68 60//68 46//68
f 61//69 63//69 46//69
f 67//70 60//70 65//70
f 65//71 64//71 67//71
f 64//72 66//72 27//72
f 69//73 60//73 67//73
f 71//74 69//74 67//74
f 71//75 37//75 75//75
f 37//76 68//76 25//76
f 69//77 70//77 60//77
f 49//78 48//78 70//78
f 49//79 70//79 72//79
f 12//80 73//80 5//80
f 2//81 7//81 39//81
f 3//82 1//82 2//82
f 5//83 19//83 4//83
f 20//84 4//84 19//84
f 6//85 7//85 4//85
f 42//86 39//86 7//86
f 6//87 51//87 8//87
f 42//88 7//88 6//88
f 14//89 9//89 10//89
f 12//90 9//90 73//90
f 13//91 10//91 12//91
f 66//92 56//92 15//92 16//92
f 9//93 15//93 18//93
f 17//94 18//94 15//94
f 15//95 56//95 17//95
f 14//96 11//96 16//96
f 16//97 15//97 14//97
f 22//98 11//98 10//98 13//98
f 19//99 73//99 9//99
f 21//100 24//100 11//100
f 22//101 23//101 35//101
f 65//102 60//102 63//102 62//102
f 13//103 3//103 23//103
f 24//104 27//104 26//104
f 24//105 25//105 68//105
f 25//106 76//106 37//106
f 26//107 11//107 24//107
f 28//108 34//108 29//108
f 30//109 40//109 33//109
f 29//110 35//110 23//110
f 31//111 28//111 29//111
f 36//112 32//112 72//112
f 72//113 71//113 36//113
f 71//114 75//114 36//114
f 33//115 47//115 32//115
f 49//116 72//116 32//116
f 76//117 36//117 75//117
f 75//118 37//118 76//118
f 41//119 77//119 39//119
f 39//120 43//120 41//120
f 46//121 70//121 48//121
f 46//122 44//122 45//122
f 47//123 44//123 48//123
f 49//124 32//124 47//124
f 58//125 74//125 50//125
f 58//126 59//126 74//126
f 58//127 50//127 78//127
f 50//128 8//128 51//128
f 8//129 74//129 42//129
f 58//130 78//130 53//130
f 52//131 19//131 17//131
f 54//132 53//132 55//132
f 62//133 54//133 55//133
f 55//134 57//134 62//134
f 53//135 52//135 17//135
f 56//136 66//136 57//136
f 54//137 62//137 61//137
f 61//138 59//138 54//138
f 46//139 60//139 70//139
f 57//140 65//140 62//140
f 65//141 57//141 64//141
f 57//142 66//142 64//142
f 67//143 64//143 68//143
f 71//144 68//144 37//144
f 67//145 68//145 71//145
f 68//146 64//146 27//146
f 71//147 72//147 69//147
f 72//148 70//148 69//148
