# Blender v2.81 (sub 16) OBJ File: ''
# www.blender.org
mtllib piedra 2.mtl
o rock.017
v -0.308713 0.703911 -0.069155
v -0.380739 0.392271 -0.094831
v -0.234938 0.753018 -0.159510
v -0.172291 0.958583 -0.312132
v -0.263662 0.662467 -0.157942
v 0.006960 0.641052 -0.375240
v 0.046427 1.011767 -0.400229
v -0.085625 0.709820 -0.387488
v 0.110325 0.454192 -0.349151
v -0.097780 0.457056 -0.378552
v 0.301431 0.909887 -0.250335
v 0.123965 0.943835 -0.371166
v 0.381565 0.640742 -0.163647
v 0.357159 0.925804 -0.038121
v 0.320470 0.831145 0.063483
v 0.275359 0.559751 -0.237278
v 0.244659 0.304521 -0.255092
v 0.288238 0.760362 0.149038
v 0.187900 0.676741 0.412200
v 0.034516 1.013562 0.421335
v -0.063390 0.870941 0.462798
v 0.355063 0.538962 0.216091
v 0.146184 0.450412 0.458906
v -0.205871 0.551402 0.407338
v -0.029520 0.434922 0.499397
v -0.331754 0.926170 0.234505
v -0.270758 0.968710 0.329785
v -0.029698 0.661172 0.504677
v -0.312921 0.910792 -0.095718
v -0.361537 0.868808 0.070426
v -0.315510 0.418242 0.311227
v -0.400933 0.467662 0.039832
v -0.095364 0.067073 0.185777
v -0.155041 0.136237 -0.061760
v -0.239181 0.125697 0.144609
v -0.276397 0.207790 0.281531
v -0.372188 0.255434 0.077134
v -0.331322 0.264875 -0.069973
v 0.289610 0.128786 -0.106278
v 0.179393 0.047203 0.096604
v 0.367956 0.144094 0.035125
v 0.399365 0.277295 0.130867
v 0.413954 0.333827 -0.083646
v 0.358009 0.386663 -0.167575
v 0.071797 0.094973 0.245235
v 0.314197 0.354734 0.300274
v 0.113719 0.243996 0.401430
v -0.101368 1.249245 0.102470
v -0.118720 1.150900 0.309382
v -0.260005 1.119269 0.168038
v -0.154652 0.997844 0.404019
v 0.245147 1.139991 -0.118450
v 0.303403 1.059334 0.070060
v 0.160455 1.090756 0.274936
v 0.311915 0.953910 0.135706
v 0.107302 1.220412 -0.254581
v -0.040624 1.194105 -0.244671
v -0.289969 1.015484 -0.109462
v 0.090234 0.247933 -0.313768
v -0.125444 0.278781 -0.247124
v -0.120797 0.205132 0.415037
v 0.105371 1.205314 0.142770
v -0.170526 1.127089 -0.199919
v -0.199566 0.684975 -0.266117
v -0.272526 0.451729 -0.258043
v 0.316815 0.732459 -0.231169
v 0.280504 0.712775 0.233068
v 0.210782 0.894207 0.343617
v -0.170542 0.718983 0.422594
v -0.352597 0.650595 0.178725
v 0.092045 0.101692 -0.098854
v 0.267733 0.150011 0.193327
v 0.055353 1.256492 0.008846
v -0.233569 1.150545 -0.000745
v 0.227938 1.070265 -0.288725
v 0.411618 0.527317 -0.102410
v 0.407062 0.547875 0.083437
v -0.372426 0.372898 0.211265
vn -0.8459 0.2574 -0.4671
vn -0.9882 -0.1163 0.1001
vn -0.8083 -0.1718 -0.5632
vn -0.8121 0.2485 -0.5280
vn 0.2763 -0.0939 -0.9565
vn 0.1018 -0.0400 -0.9940
vn -0.7341 0.2072 -0.6467
vn -0.4928 -0.4655 -0.7352
vn 0.4875 0.1496 -0.8602
vn 0.1388 -0.0612 -0.9884
vn -0.3186 -0.5299 -0.7859
vn 0.1352 -0.1803 -0.9743
vn 0.4382 -0.0735 -0.8959
vn 0.5701 0.0652 -0.8190
vn 0.7121 -0.0141 -0.7020
vn 0.9619 0.2716 0.0310
vn 0.9565 0.2918 -0.0088
vn 0.8961 0.4345 -0.0910
vn 0.9446 0.1966 -0.2628
vn 0.9604 -0.0886 0.2643
vn 0.6272 -0.1234 -0.7690
vn 0.5657 -0.0105 -0.8246
vn 0.8177 -0.0458 -0.5739
vn 0.8686 0.3371 0.3631
vn 0.4853 -0.1299 -0.8646
vn 0.9996 0.0143 0.0229
vn 0.8896 0.0666 0.4518
vn 0.7877 0.3730 0.4903
vn 0.7977 0.2814 0.5334
vn 0.9553 -0.0976 0.2791
vn 0.8198 0.3043 0.4850
vn 0.8825 0.0545 0.4672
vn 0.3779 0.1473 0.9140
vn 0.1045 0.2108 0.9719
vn 0.5818 0.3970 0.7098
vn -0.1141 0.3488 0.9302
vn 0.5574 -0.3029 0.7730
vn -0.4550 0.0149 0.8904
vn 0.2264 -0.0225 0.9738
vn 0.2392 -0.2952 0.9250
vn -0.4948 0.1212 0.8605
vn -0.5391 0.0024 0.8422
vn -0.7911 -0.0633 0.6084
vn -0.9855 0.0413 0.1645
vn -0.9694 -0.1398 -0.2017
vn -0.9542 -0.0571 -0.2936
vn -0.8954 0.4453 0.0069
vn -0.8116 0.1862 0.5537
vn -0.5670 -0.1212 0.8147
vn -0.5597 -0.7841 -0.2682
vn -0.3930 -0.8063 0.4420
vn -0.1991 -0.7612 -0.6172
vn -0.4595 -0.6671 -0.5864
vn -0.5433 -0.5044 -0.6711
vn 0.4179 -0.8985 -0.1343
vn 0.8035 -0.4434 -0.3972
vn 0.9725 -0.2328 0.0048
vn 0.0918 -0.8229 -0.5607
vn 0.4618 -0.5015 -0.7317
vn 0.3551 -0.7841 0.5091
vn 0.0394 -0.9426 0.3315
vn 0.1601 -0.7353 0.6586
vn 0.1166 -0.3828 0.9165
vn 0.5163 -0.7788 0.3562
vn 0.5912 -0.4748 0.6520
vn 0.1055 0.8947 0.4341
vn 0.2539 0.7654 0.5914
vn 0.2075 0.7804 0.5899
vn -0.5111 0.7921 0.3336
vn -0.6662 0.4991 0.5542
vn 0.6201 0.7721 0.1387
vn 0.7875 0.3704 0.4926
vn -0.1418 0.9766 -0.1617
vn 0.5154 0.8568 -0.0157
vn -0.4257 0.4610 -0.7786
vn -0.4977 0.4843 -0.7195
vn 0.4746 0.1725 -0.8631
vn -0.4688 0.8560 -0.2180
vn -0.9022 0.4268 -0.0622
vn -0.7551 0.3688 -0.5420
vn -0.8531 0.2628 -0.4508
vn -0.8547 0.2516 -0.4541
vn -0.8192 0.2325 -0.5242
vn -0.6968 -0.3880 -0.6033
vn -0.8790 -0.3935 -0.2694
vn -0.9321 0.2379 -0.2730
vn -0.9871 -0.1454 -0.0666
vn -0.9411 0.0373 -0.3361
vn -0.8444 0.1165 -0.5230
vn -0.7434 -0.1000 -0.6613
vn -0.7239 -0.0436 -0.6885
vn -0.3984 0.1360 -0.9071
vn 0.0758 -0.0751 -0.9943
vn -0.5677 -0.0018 -0.8232
vn 0.9034 0.3571 -0.2375
vn 0.8921 0.3683 -0.2619
vn 0.7130 -0.0553 -0.6990
vn 0.9533 -0.0496 0.2980
vn 0.5760 -0.0122 -0.8174
vn 0.4095 -0.1929 -0.8917
vn -0.2245 -0.9512 -0.2117
vn 0.9295 0.0379 0.3669
vn 0.9978 -0.0173 0.0633
vn 0.8687 0.3925 0.3022
vn 0.9925 -0.1198 0.0235
vn 0.3811 0.1190 0.9168
vn 0.5098 0.2095 0.8344
vn 0.8945 0.0059 0.4470
vn 0.7223 0.1484 0.6755
vn 0.7591 -0.0056 0.6510
vn -0.5097 -0.0205 0.8601
vn -0.5150 -0.1076 0.8504
vn -0.8129 -0.1139 0.5712
vn -0.8356 0.4287 0.3435
vn -0.4702 0.0996 0.8769
vn -0.9399 0.3404 -0.0258
vn -0.9556 0.1787 -0.2345
vn -0.7146 0.0875 0.6940
vn -0.8849 0.1161 0.4512
vn -0.7984 -0.2271 0.5576
vn -0.6370 -0.2225 0.7380
vn -0.9415 0.3226 -0.0973
vn -0.9723 0.0945 0.2139
vn 0.7079 -0.4761 0.5217
vn -0.6213 -0.7518 -0.2208
vn -0.4396 -0.8180 0.3709
vn -0.7334 -0.6522 0.1917
vn -0.8715 -0.3697 0.3222
vn -0.2801 -0.7948 -0.5384
vn 0.1173 -0.9418 -0.3150
vn 0.7062 -0.2831 -0.6490
vn 0.6953 -0.3525 -0.6263
vn -0.1377 -0.9683 -0.2084
vn -0.0390 -0.8579 0.5123
vn 0.3595 -0.7215 0.5919
vn 0.1401 0.9412 0.3074
vn -0.6212 0.7822 0.0476
vn -0.5209 0.6418 0.5628
vn -0.1212 0.5425 0.8313
vn 0.5683 0.8167 0.0999
vn 0.6357 0.6945 0.3370
vn 0.9538 0.2104 0.2142
vn 0.6975 0.6356 -0.3308
vn -0.1841 0.9652 -0.1855
vn -0.1587 0.5959 -0.7873
vn 0.3494 0.4656 -0.8131
vn -0.5117 0.8193 -0.2585
vn -0.7636 0.5672 -0.3085
usemtl None
s off
f 5//1 65//1 2//1
f 32//2 37//2 78//2
f 29//3 4//3 3//3
f 3//4 5//4 1//4
f 7//5 12//5 6//5
f 8//6 6//6 10//6
f 65//7 64//7 8//7
f 60//8 65//8 10//8
f 9//9 6//9 16//9
f 6//10 9//10 10//10
f 10//11 59//11 60//11
f 9//12 59//12 10//12
f 16//13 6//13 66//13
f 11//14 12//14 75//14
f 11//15 13//15 66//15
f 76//16 13//16 15//16
f 15//17 77//17 76//17
f 14//18 52//18 53//18
f 14//19 13//19 11//19
f 15//20 14//20 55//20
f 66//21 13//21 16//21
f 17//22 9//22 16//22
f 76//23 43//23 44//23
f 22//24 77//24 67//24
f 66//25 6//25 12//25 11//25
f 43//26 76//26 77//26
f 55//27 68//27 67//27
f 68//28 55//28 54//28
f 77//29 15//29 18//29
f 18//30 15//30 55//30
f 22//31 67//31 19//31
f 19//32 67//32 68//32
f 28//33 19//33 20//33
f 20//34 21//34 28//34
f 54//35 20//35 68//35
f 21//36 20//36 51//36
f 23//37 47//37 46//37
f 69//38 24//38 25//38
f 25//39 23//39 28//39
f 47//40 23//40 25//40
f 69//41 21//41 27//41
f 21//42 51//42 27//42
f 70//43 69//43 26//43
f 26//44 30//44 70//44
f 70//45 30//45 1//45
f 1//46 30//46 29//46
f 30//47 26//47 58//47
f 31//48 69//48 70//48
f 61//49 24//49 31//49
f 34//50 35//50 38//50
f 33//51 61//51 36//51
f 34//52 60//52 71//52
f 34//53 38//53 60//53
f 60//54 38//54 65//54
f 41//55 40//55 39//55
f 39//56 43//56 41//56
f 41//57 43//57 42//57
f 59//58 39//58 71//58
f 17//59 39//59 59//59
f 45//60 40//60 72//60
f 40//61 45//61 33//61
f 45//62 47//62 61//62
f 61//63 47//63 25//63
f 40//64 41//64 72//64
f 46//65 47//65 72//65
f 48//66 49//66 62//66
f 62//67 49//67 20//67
f 54//68 62//68 20//68
f 50//69 49//69 48//69
f 49//70 50//70 51//70
f 52//71 62//71 53//71
f 53//72 54//72 55//72
f 56//73 48//73 73//73
f 73//74 52//74 56//74
f 57//75 7//75 4//75
f 4//76 63//76 57//76
f 75//77 12//77 7//77
f 57//78 74//78 48//78
f 74//79 58//79 50//79
f 4//80 58//80 63//80
f 5//81 3//81 64//81
f 5//82 64//82 65//82
f 5//83 2//83 1//83
f 2//84 65//84 38//84
f 38//85 37//85 2//85
f 2//86 32//86 1//86
f 32//87 2//87 37//87
f 3//88 4//88 64//88
f 4//89 29//89 58//89
f 3//90 1//90 29//90
f 8//91 64//91 4//91
f 4//92 7//92 8//92
f 6//93 8//93 7//93
f 10//94 65//94 8//94
f 75//95 52//95 11//95
f 52//96 14//96 11//96
f 13//97 76//97 44//97 17//97
f 15//98 13//98 14//98
f 16//99 13//99 17//99
f 17//100 59//100 9//100
f 71//101 33//101 35//101 34//101
f 77//102 22//102 42//102
f 43//103 77//103 42//103
f 67//104 77//104 18//104
f 67//105 18//105 55//105
f 19//106 28//106 23//106
f 19//107 68//107 20//107
f 46//108 42//108 22//108
f 22//109 23//109 46//109
f 23//110 22//110 19//110
f 28//111 69//111 25//111
f 25//112 24//112 61//112
f 26//113 69//113 27//113
f 27//114 50//114 26//114
f 69//115 28//115 21//115
f 58//116 26//116 50//116
f 58//117 29//117 30//117
f 31//118 24//118 69//118
f 31//119 70//119 78//119
f 31//120 78//120 36//120
f 36//121 61//121 31//121
f 70//122 1//122 32//122
f 70//123 32//123 78//123
f 42//124 46//124 72//124 41//124
f 38//125 35//125 37//125
f 33//126 36//126 35//126
f 37//127 35//127 36//127
f 36//128 78//128 37//128
f 71//129 60//129 59//129
f 39//130 40//130 71//130
f 43//131 17//131 44//131
f 43//132 39//132 17//132
f 33//133 71//133 40//133
f 45//134 61//134 33//134
f 45//135 72//135 47//135
f 48//136 62//136 73//136
f 48//137 74//137 50//137
f 51//138 50//138 27//138
f 51//139 20//139 49//139
f 62//140 52//140 73//140
f 53//141 62//141 54//141
f 55//142 14//142 53//142
f 56//143 52//143 75//143
f 56//144 57//144 48//144
f 57//145 56//145 7//145
f 7//146 56//146 75//146
f 57//147 63//147 74//147
f 74//148 63//148 58//148
